<svg xmlns="http://www.w3.org/2000/svg" xmlns:xlink="http://www.w3.org/1999/xlink" width="1080" zoomAndPan="magnify" viewBox="0 0 810 809.999993" height="1080" preserveAspectRatio="xMidYMid meet" version="1.0"><defs><g/><clipPath id="a14f0a582d"><rect x="0" width="261" y="0" height="649"/></clipPath><clipPath id="fd4f0aaea3"><rect x="0" width="470" y="0" height="275"/></clipPath><clipPath id="4cb2684ae3"><rect x="0" width="356" y="0" height="371"/></clipPath><clipPath id="8d4431c982"><rect x="0" width="171" y="0" height="48"/></clipPath><clipPath id="441ac1ade3"><rect x="0" width="44" y="0" height="55"/></clipPath></defs><rect x="-81" width="972" fill="#ffffff" y="-80.999999" height="971.999992" fill-opacity="1"/><rect x="-81" width="972" fill="#000000" y="-80.999999" height="971.999992" fill-opacity="1"/><g transform="matrix(1, 0, 0, 1, 293, 37)"><g clip-path="url(#a14f0a582d)"><g fill="#f1dc5e" fill-opacity="1"><g transform="translate(1.037424, 518.693413)"><g><path d="M 161.515625 -64.609375 L 161.515625 0 L 96.90625 0 L 96.90625 -64.609375 Z M 32.296875 -64.609375 L 32.296875 -323.03125 L 96.90625 -323.03125 L 96.90625 -64.609375 Z M 161.515625 -64.609375 L 161.515625 -323.03125 L 226.125 -323.03125 L 226.125 -64.609375 Z M 161.515625 -64.609375 "/></g></g></g></g></g><g transform="matrix(1, 0, 0, 1, 161, 227)"><g clip-path="url(#fd4f0aaea3)"><g fill="#f1dc5e" fill-opacity="1"><g transform="translate(1.013243, 215.742675)"><g/></g></g><g fill="#f1dc5e" fill-opacity="1"><g transform="translate(53.353199, 215.742675)"><g><path d="M 33.640625 0 L 17.3125 0 L 17.3125 -153.0625 L 33.640625 -153.0625 Z M 33.640625 0 "/></g></g></g><g fill="#f1dc5e" fill-opacity="1"><g transform="translate(104.314153, 215.742675)"><g/></g></g><g fill="#f1dc5e" fill-opacity="1"><g transform="translate(156.649087, 215.742675)"><g/></g></g><g fill="#f1dc5e" fill-opacity="1"><g transform="translate(208.984021, 215.742675)"><g/></g></g><g fill="#f1dc5e" fill-opacity="1"><g transform="translate(261.318954, 215.742675)"><g/></g></g><g fill="#f1dc5e" fill-opacity="1"><g transform="translate(313.653888, 215.742675)"><g/></g></g><g fill="#f1dc5e" fill-opacity="1"><g transform="translate(365.988822, 215.742675)"><g/></g></g><g fill="#f1dc5e" fill-opacity="1"><g transform="translate(418.33315, 215.742675)"><g><path d="M 33.640625 0 L 17.3125 0 L 17.3125 -153.0625 L 33.640625 -153.0625 Z M 33.640625 0 "/></g></g></g></g></g><g transform="matrix(1, 0, 0, 1, 243, 180)"><g clip-path="url(#4cb2684ae3)"><g fill="#f1dc5e" fill-opacity="1"><g transform="translate(4.24151, 288.12502)"><g><path d="M 45.578125 0 L 23.453125 0 L 23.453125 -207.359375 L 45.578125 -207.359375 Z M 45.578125 0 "/></g></g></g><g fill="#f1dc5e" fill-opacity="1"><g transform="translate(73.315106, 288.12502)"><g/></g></g><g fill="#f1dc5e" fill-opacity="1"><g transform="translate(144.208116, 288.12502)"><g/></g></g><g fill="#f1dc5e" fill-opacity="1"><g transform="translate(215.101127, 288.12502)"><g/></g></g><g fill="#f1dc5e" fill-opacity="1"><g transform="translate(286.010112, 288.12502)"><g><path d="M 45.578125 0 L 23.453125 0 L 23.453125 -207.359375 L 45.578125 -207.359375 Z M 45.578125 0 "/></g></g></g></g></g><g fill="#f1dc5e" fill-opacity="1"><g transform="translate(581.922209, 257.292137)"><g><path d="M 19.046875 -40 L 28.953125 -40 L 28.953125 -24.953125 L 44 -24.953125 L 44 -15.046875 L 28.953125 -15.046875 L 28.953125 0 L 19.046875 0 L 19.046875 -15.046875 L 4 -15.046875 L 4 -24.953125 L 19.046875 -24.953125 Z M 19.046875 -40 "/></g></g></g><g transform="matrix(1, 0, 0, 1, 338, 182)"><g clip-path="url(#8d4431c982)"><g fill="#ffffff" fill-opacity="1"><g transform="translate(1.285257, 37.809013)"><g><path d="M 18.75 0 L 1.4375 0 L 1.4375 -31.78125 L 10.109375 -31.78125 L 10.109375 -8.6875 L 18.75 -8.6875 Z M 18.75 0 "/></g></g></g><g fill="#ffffff" fill-opacity="1"><g transform="translate(21.471907, 37.809013)"><g><path d="M 21.65625 0 L 1.4375 0 L 1.4375 -31.78125 L 21.65625 -31.78125 L 21.65625 -23.09375 L 10.109375 -23.09375 L 10.109375 -20.234375 L 18.75 -20.234375 L 18.75 -11.546875 L 10.109375 -11.546875 L 10.109375 -8.6875 L 21.65625 -8.6875 Z M 21.65625 0 "/></g></g></g><g fill="#ffffff" fill-opacity="1"><g transform="translate(44.568762, 37.809013)"><g><path d="M 21.65625 -15.890625 L 15.890625 0 L 7.203125 0 L 1.4375 -15.890625 L 1.4375 -31.78125 L 10.109375 -31.78125 L 10.109375 -15.890625 L 11.546875 -12.015625 L 12.984375 -15.890625 L 12.984375 -31.78125 L 21.65625 -31.78125 Z M 21.65625 -15.890625 "/></g></g></g><g fill="#ffffff" fill-opacity="1"><g transform="translate(67.665617, 37.809013)"><g><path d="M 21.65625 0 L 1.4375 0 L 1.4375 -31.78125 L 21.65625 -31.78125 L 21.65625 -23.09375 L 10.109375 -23.09375 L 10.109375 -20.234375 L 18.75 -20.234375 L 18.75 -11.546875 L 10.109375 -11.546875 L 10.109375 -8.6875 L 21.65625 -8.6875 Z M 21.65625 0 "/></g></g></g><g fill="#ffffff" fill-opacity="1"><g transform="translate(90.762471, 37.809013)"><g><path d="M 18.75 0 L 1.4375 0 L 1.4375 -31.78125 L 10.109375 -31.78125 L 10.109375 -8.6875 L 18.75 -8.6875 Z M 18.75 0 "/></g></g></g><g fill="#ffffff" fill-opacity="1"><g transform="translate(110.949121, 37.809013)"><g/></g></g><g fill="#ffffff" fill-opacity="1"><g transform="translate(123.051875, 37.809013)"><g><path d="M 21.65625 -4.34375 C 21.65625 -3.175781 21.222656 -2.160156 20.359375 -1.296875 C 19.503906 -0.429688 18.488281 0 17.3125 0 L 5.765625 0 C 4.597656 0 3.582031 -0.429688 2.71875 -1.296875 C 1.863281 -2.160156 1.4375 -3.175781 1.4375 -4.34375 L 1.4375 -31.78125 L 10.109375 -31.78125 L 10.109375 -8.6875 L 12.984375 -8.6875 L 12.984375 -31.78125 L 21.65625 -31.78125 Z M 21.65625 -4.34375 "/></g></g></g><g fill="#ffffff" fill-opacity="1"><g transform="translate(146.14873, 37.809013)"><g><path d="M 12.984375 -17.3125 L 12.984375 -23.09375 L 10.109375 -23.09375 L 10.109375 -17.3125 Z M 21.65625 -12.984375 C 21.65625 -11.804688 21.222656 -10.796875 20.359375 -9.953125 C 19.503906 -9.109375 18.488281 -8.6875 17.3125 -8.6875 L 10.109375 -8.6875 L 10.109375 0 L 1.4375 0 L 1.4375 -31.78125 L 17.3125 -31.78125 C 18.488281 -31.78125 19.503906 -31.347656 20.359375 -30.484375 C 21.222656 -29.617188 21.65625 -28.601562 21.65625 -27.4375 Z M 21.65625 -12.984375 "/></g></g></g></g></g><g fill="#ff66c4" fill-opacity="1"><g transform="translate(313.933258, 579.775359)"><g><path d="M 119.84375 -65.890625 C 120.414062 -65.546875 120.78125 -65.085938 120.9375 -64.515625 C 121.09375 -63.941406 121 -63.367188 120.65625 -62.796875 C 120.144531 -61.960938 119.515625 -61.203125 118.765625 -60.515625 C 117.242188 -59.109375 115.570312 -57.835938 113.75 -56.703125 C 104.539062 -50.679688 94.625 -46.109375 84 -42.984375 C 83.519531 -42.847656 83.035156 -42.691406 82.546875 -42.515625 C 81.828125 -42.285156 81.09375 -42.066406 80.34375 -41.859375 C 80.144531 -41.785156 79.957031 -41.8125 79.78125 -41.9375 C 79.613281 -42.0625 79.503906 -42.238281 79.453125 -42.46875 C 79.453125 -42.582031 79.492188 -42.710938 79.578125 -42.859375 C 79.671875 -43.003906 79.769531 -43.101562 79.875 -43.15625 C 80.769531 -43.53125 81.703125 -43.875 82.671875 -44.1875 C 93.328125 -47.71875 103.3125 -52.628906 112.625 -58.921875 C 113.757812 -59.753906 114.859375 -60.613281 115.921875 -61.5 C 116.066406 -61.644531 116.222656 -61.765625 116.390625 -61.859375 C 116.941406 -62.304688 117.332031 -62.875 117.5625 -63.5625 C 117.707031 -63.96875 117.59375 -64.3125 117.21875 -64.59375 C 116.789062 -64.863281 116.320312 -65.019531 115.8125 -65.0625 C 115.71875 -65.0625 115.613281 -65.078125 115.5 -65.109375 C 113.46875 -65.453125 111.429688 -65.625 109.390625 -65.625 C 107.359375 -65.625 105.328125 -65.539062 103.296875 -65.375 C 98.679688 -64.914062 94.085938 -64.289062 89.515625 -63.5 C 84.953125 -62.71875 80.394531 -61.84375 75.84375 -60.875 C 62.375 -58.03125 49.125 -54.421875 36.09375 -50.046875 C 31.457031 -48.492188 26.859375 -46.84375 22.296875 -45.09375 C 17.742188 -43.34375 13.25 -41.421875 8.8125 -39.328125 C 7.613281 -38.734375 6.410156 -38.148438 5.203125 -37.578125 C 4.566406 -37.234375 3.90625 -36.890625 3.21875 -36.546875 C 3.101562 -36.515625 3.015625 -36.457031 2.953125 -36.375 C 2.503906 -36.144531 2.035156 -35.957031 1.546875 -35.8125 C 1.316406 -35.71875 1.070312 -35.675781 0.8125 -35.6875 C 0.550781 -35.707031 0.351562 -35.820312 0.21875 -36.03125 C 0.0703125 -36.3125 0.0664062 -36.550781 0.203125 -36.75 C 0.347656 -36.957031 0.539062 -37.128906 0.78125 -37.265625 C 0.8125 -37.296875 0.863281 -37.328125 0.9375 -37.359375 C 2.0625 -38.015625 3.226562 -38.65625 4.4375 -39.28125 C 8.289062 -41.238281 12.21875 -43.039062 16.21875 -44.6875 C 20.21875 -46.332031 24.265625 -47.882812 28.359375 -49.34375 C 44.828125 -55.21875 61.625 -59.875 78.75 -63.3125 C 82.875 -64.132812 87 -64.890625 91.125 -65.578125 C 95.25 -66.265625 99.40625 -66.78125 103.59375 -67.125 C 104.800781 -67.1875 106.019531 -67.25 107.25 -67.3125 C 107.800781 -67.363281 108.375 -67.40625 108.96875 -67.4375 C 111.539062 -67.4375 114.117188 -67.25 116.703125 -66.875 C 117.796875 -66.726562 118.84375 -66.398438 119.84375 -65.890625 Z M 56.109375 -17.890625 C 56.347656 -17.835938 56.570312 -17.753906 56.78125 -17.640625 C 56.988281 -17.523438 57.144531 -17.394531 57.25 -17.25 C 57.351562 -17.113281 57.363281 -16.984375 57.28125 -16.859375 C 57.113281 -16.640625 56.921875 -16.515625 56.703125 -16.484375 C 56.484375 -16.453125 56.269531 -16.4375 56.0625 -16.4375 C 56.019531 -16.4375 55.984375 -16.4375 55.953125 -16.4375 C 52.273438 -16.4375 48.578125 -16.265625 44.859375 -15.921875 C 42.910156 -15.742188 40.9375 -15.601562 38.9375 -15.5 C 38.28125 -15.46875 37.832031 -15.125 37.59375 -14.46875 C 37.394531 -13.945312 37.171875 -13.429688 36.921875 -12.921875 C 36.796875 -12.617188 36.675781 -12.3125 36.5625 -12 C 36.082031 -10.894531 35.625 -9.8125 35.1875 -8.75 C 31.40625 0.457031 27.46875 9.601562 23.375 18.6875 C 22.195312 21.195312 20.953125 23.671875 19.640625 26.109375 C 19.640625 26.140625 19.625 26.171875 19.59375 26.203125 C 19.1875 27.003906 18.671875 27.765625 18.046875 28.484375 C 17.503906 29.140625 16.785156 29.363281 15.890625 29.15625 C 15.640625 29.082031 15.425781 28.957031 15.25 28.78125 C 15.082031 28.613281 15 28.394531 15 28.125 C 15.050781 27.53125 15.160156 26.945312 15.328125 26.375 C 15.453125 25.96875 15.585938 25.535156 15.734375 25.078125 C 16.421875 22.847656 17.144531 20.613281 17.90625 18.375 C 21.34375 8.519531 25.34375 -1.101562 29.90625 -10.5 C 30.332031 -11.394531 30.832031 -12.269531 31.40625 -13.125 C 31.550781 -13.332031 31.75 -13.453125 32 -13.484375 C 32.257812 -13.523438 32.507812 -13.507812 32.75 -13.4375 C 33.164062 -13.3125 33.316406 -12.988281 33.203125 -12.46875 C 33.097656 -11.957031 32.882812 -11.363281 32.5625 -10.6875 C 32.25 -10.019531 31.9375 -9.425781 31.625 -8.90625 C 31.375 -8.488281 31.203125 -8.175781 31.109375 -7.96875 C 26.390625 2.175781 23.753906 8.09375 23.203125 9.78125 C 23.003906 10.351562 22.90625 10.738281 22.90625 10.9375 C 22.90625 11.144531 22.972656 11.234375 23.109375 11.203125 C 23.253906 11.171875 23.410156 11.078125 23.578125 10.921875 C 23.753906 10.765625 23.914062 10.597656 24.0625 10.421875 C 24.207031 10.253906 24.304688 10.140625 24.359375 10.078125 C 24.554688 9.566406 24.773438 9.035156 25.015625 8.484375 C 25.773438 6.722656 26.53125 4.96875 27.28125 3.21875 C 27.519531 2.695312 27.75 2.179688 27.96875 1.671875 C 29.570312 -2.148438 31.164062 -5.96875 32.75 -9.78125 C 32.820312 -9.914062 32.921875 -10.125 33.046875 -10.40625 C 33.328125 -10.957031 33.625 -11.597656 33.9375 -12.328125 C 34.25 -13.066406 34.445312 -13.726562 34.53125 -14.3125 C 34.625 -14.894531 34.472656 -15.203125 34.078125 -15.234375 C 33.296875 -15.234375 32.507812 -15.234375 31.71875 -15.234375 C 31.195312 -15.234375 30.679688 -15.234375 30.171875 -15.234375 C 29.734375 -15.234375 29.269531 -15.234375 28.78125 -15.234375 C 27.269531 -15.234375 25.753906 -15.257812 24.234375 -15.3125 C 23.828125 -15.34375 23.453125 -15.441406 23.109375 -15.609375 C 23.078125 -15.640625 23.050781 -15.695312 23.03125 -15.78125 C 23.007812 -15.875 22.984375 -15.972656 22.953125 -16.078125 C 22.953125 -16.109375 22.953125 -16.140625 22.953125 -16.171875 C 22.953125 -16.203125 22.96875 -16.238281 23 -16.28125 C 23.039062 -16.320312 23.078125 -16.359375 23.109375 -16.390625 C 23.316406 -16.523438 23.519531 -16.609375 23.71875 -16.640625 C 23.925781 -16.671875 24.140625 -16.6875 24.359375 -16.6875 C 24.421875 -16.6875 24.484375 -16.6875 24.546875 -16.6875 C 25.398438 -16.71875 26.257812 -16.75 27.125 -16.78125 C 29.351562 -16.925781 31.585938 -17.015625 33.828125 -17.046875 C 34.585938 -17.046875 35.179688 -17.207031 35.609375 -17.53125 C 36.046875 -17.863281 36.378906 -18.375 36.609375 -19.0625 C 37.722656 -21.914062 38.84375 -24.765625 39.96875 -27.609375 C 41.164062 -30.640625 42.351562 -33.671875 43.53125 -36.703125 C 44.414062 -39.035156 45.257812 -41.375 46.0625 -43.71875 C 46.5 -44.945312 46.941406 -46.195312 47.390625 -47.46875 C 47.390625 -47.507812 47.40625 -47.546875 47.4375 -47.578125 C 47.613281 -48.128906 47.84375 -48.628906 48.125 -49.078125 C 48.289062 -49.316406 48.492188 -49.441406 48.734375 -49.453125 C 48.984375 -49.472656 49.238281 -49.453125 49.5 -49.390625 C 49.707031 -49.273438 49.875 -49.140625 50 -48.984375 C 50.125 -48.828125 50.171875 -48.648438 50.140625 -48.453125 C 50.023438 -47.671875 49.867188 -46.894531 49.671875 -46.125 C 48.523438 -42.375 47.234375 -38.695312 45.796875 -35.09375 C 45.722656 -35 45.671875 -34.894531 45.640625 -34.78125 C 44.335938 -31.375 43 -27.992188 41.625 -24.640625 C 41 -23.085938 40.375 -21.539062 39.75 -20 C 39.75 -19.96875 39.75 -19.953125 39.75 -19.953125 C 39.582031 -19.492188 39.410156 -19.023438 39.234375 -18.546875 C 39.066406 -18.109375 39.0625 -17.789062 39.21875 -17.59375 C 39.375 -17.394531 39.707031 -17.296875 40.21875 -17.296875 C 40.90625 -17.296875 41.59375 -17.335938 42.28125 -17.421875 C 42.59375 -17.421875 42.90625 -17.421875 43.21875 -17.421875 C 43.28125 -17.421875 43.328125 -17.4375 43.359375 -17.46875 C 47.316406 -17.601562 51.253906 -17.742188 55.171875 -17.890625 C 55.484375 -17.921875 55.796875 -17.921875 56.109375 -17.890625 Z M 56.109375 -17.890625 "/></g></g><g transform="translate(372.10513, 579.775359)"><g><path d="M 3.734375 -5.5625 L 3.65625 -5.5625 C 1.394531 -5.59375 -0.09375 -6.09375 -0.8125 -7.0625 C -1.539062 -8.039062 -1.515625 -9.34375 -0.734375 -10.96875 C -0.0664062 -12.207031 0.765625 -13.285156 1.765625 -14.203125 C 2.109375 -14.515625 2.457031 -14.765625 2.8125 -14.953125 C 3.175781 -15.140625 3.582031 -15.234375 4.03125 -15.234375 C 4.300781 -15.285156 4.609375 -15.238281 4.953125 -15.09375 C 5.054688 -15.0625 5.164062 -15.023438 5.28125 -14.984375 C 5.539062 -15.023438 5.796875 -15.109375 6.046875 -15.234375 C 6.109375 -15.285156 6.195312 -15.328125 6.3125 -15.359375 C 6.820312 -15.554688 7.367188 -15.640625 7.953125 -15.609375 C 8.179688 -15.609375 8.421875 -15.609375 8.671875 -15.609375 C 9.597656 -15.472656 10.296875 -15.085938 10.765625 -14.453125 C 11.234375 -13.816406 11.394531 -13.046875 11.25 -12.140625 C 11.175781 -11.597656 11.003906 -11.082031 10.734375 -10.59375 C 8.941406 -7.375 6.65625 -5.695312 3.875 -5.5625 Z M 7.4375 -13.953125 C 6.195312 -13.992188 5.097656 -13.632812 4.140625 -12.875 C 3.179688 -12.125 2.46875 -11.253906 2 -10.265625 C 1.53125 -9.285156 1.398438 -8.476562 1.609375 -7.84375 C 1.816406 -7.207031 2.46875 -7.03125 3.5625 -7.3125 C 4.800781 -7.6875 5.890625 -8.390625 6.828125 -9.421875 C 7.773438 -10.453125 8.351562 -11.429688 8.5625 -12.359375 C 8.78125 -13.296875 8.40625 -13.828125 7.4375 -13.953125 Z M 7.4375 -13.953125 "/></g></g><g transform="translate(384.550442, 579.775359)"><g><path d="M 11.25 -14.390625 C 11.113281 -13.316406 10.609375 -12.613281 9.734375 -12.28125 C 8.859375 -11.957031 8.570312 -12.390625 8.875 -13.578125 C 9.175781 -14.765625 8.640625 -15.0625 7.265625 -14.46875 C 5.890625 -13.882812 4.757812 -13.148438 3.875 -12.265625 C 2.5 -10.859375 1.28125 -9.34375 0.21875 -7.71875 C 0.101562 -7.570312 0.015625 -7.453125 -0.046875 -7.359375 C -0.359375 -6.910156 -0.671875 -6.484375 -0.984375 -6.078125 C -1.191406 -5.796875 -1.429688 -5.617188 -1.703125 -5.546875 C -1.972656 -5.472656 -2.25 -5.460938 -2.53125 -5.515625 C -2.800781 -5.546875 -3.003906 -5.644531 -3.140625 -5.8125 C -3.285156 -5.988281 -3.300781 -6.191406 -3.1875 -6.421875 C -3.019531 -6.847656 -2.816406 -7.28125 -2.578125 -7.71875 C -1.171875 -10.320312 0.257812 -12.9375 1.71875 -15.5625 C 1.75 -15.59375 1.765625 -15.625 1.765625 -15.65625 C 1.960938 -16.0625 2.203125 -16.4375 2.484375 -16.78125 C 2.796875 -17.125 3.15625 -17.265625 3.5625 -17.203125 C 3.96875 -17.140625 4.242188 -16.898438 4.390625 -16.484375 C 4.554688 -15.929688 4.703125 -15.617188 4.828125 -15.546875 C 4.953125 -15.484375 5.234375 -15.535156 5.671875 -15.703125 C 6.609375 -16.046875 7.519531 -16.285156 8.40625 -16.421875 C 9.300781 -16.566406 10.035156 -16.535156 10.609375 -16.328125 C 11.179688 -16.117188 11.394531 -15.472656 11.25 -14.390625 Z M 11.25 -14.390625 "/></g></g><g transform="translate(396.269192, 579.775359)"><g/></g><g transform="translate(413.987941, 579.775359)"><g><path d="M 92.8125 9.3125 C 92.84375 9.3125 92.898438 9.3125 92.984375 9.3125 C 93.210938 9.34375 93.441406 9.390625 93.671875 9.453125 C 93.898438 9.523438 94.097656 9.664062 94.265625 9.875 C 94.328125 9.9375 94.378906 10.019531 94.421875 10.125 C 94.460938 10.238281 94.457031 10.34375 94.40625 10.4375 C 94.375 10.539062 94.316406 10.632812 94.234375 10.71875 C 94.148438 10.8125 94.078125 10.859375 94.015625 10.859375 C 93.585938 10.921875 93.15625 10.921875 92.71875 10.859375 C 82.238281 8.679688 70.617188 7.273438 57.859375 6.640625 C 45.097656 6.015625 33.328125 6.25 22.546875 7.34375 C 22.066406 7.375 21.597656 7.425781 21.140625 7.5 C 20.734375 7.53125 20.34375 7.5625 19.96875 7.59375 C 18.769531 7.769531 17.738281 8.300781 16.875 9.1875 C 14.9375 11.300781 12.804688 13.160156 10.484375 14.765625 C 8.648438 16.003906 6.632812 16.691406 4.4375 16.828125 C 3.539062 16.890625 2.679688 16.75 1.859375 16.40625 C 1.078125 16.0625 0.570312 15.546875 0.34375 14.859375 C 0.113281 14.171875 0.210938 13.4375 0.640625 12.65625 C 1.328125 11.550781 2.457031 10.601562 4.03125 9.8125 C 5.613281 9.019531 7.296875 8.375 9.078125 7.875 C 10.867188 7.375 12.382812 7.007812 13.625 6.78125 C 15.28125 6.46875 16.625 5.660156 17.65625 4.359375 C 22.632812 -1.703125 27.425781 -8.566406 32.03125 -16.234375 C 36.632812 -23.898438 40.875 -31.785156 44.75 -39.890625 C 48.632812 -48.003906 51.976562 -55.769531 54.78125 -63.1875 C 54.875 -63.582031 55.03125 -63.921875 55.25 -64.203125 C 55.476562 -64.492188 55.8125 -64.695312 56.25 -64.8125 C 56.675781 -64.875 57.039062 -64.789062 57.34375 -64.5625 C 57.644531 -64.332031 57.765625 -64.015625 57.703125 -63.609375 C 57.566406 -62.640625 57.328125 -61.695312 56.984375 -60.78125 C 54.304688 -53.726562 51.132812 -46.382812 47.46875 -38.75 C 43.8125 -31.125 39.828125 -23.6875 35.515625 -16.4375 C 31.203125 -9.1875 26.753906 -2.617188 22.171875 3.265625 C 21.222656 4.460938 20.9375 5.160156 21.3125 5.359375 C 21.6875 5.554688 22.421875 5.546875 23.515625 5.328125 C 23.765625 5.296875 24.003906 5.265625 24.234375 5.234375 C 32.828125 4.265625 41.738281 3.96875 50.96875 4.34375 C 60.207031 4.726562 69.3125 5.539062 78.28125 6.78125 C 81.4375 7.226562 84.53125 7.742188 87.5625 8.328125 C 89.34375 8.671875 91.09375 9 92.8125 9.3125 Z M 5.71875 14.609375 C 8.34375 13.546875 10.515625 11.863281 12.234375 9.5625 C 9.410156 9.769531 6.894531 10.644531 4.6875 12.1875 C 4 12.707031 3.597656 13.207031 3.484375 13.6875 C 3.367188 14.175781 3.507812 14.53125 3.90625 14.75 C 4.300781 14.96875 4.90625 14.921875 5.71875 14.609375 Z M 5.71875 14.609375 "/></g></g><g transform="translate(457.370751, 579.775359)"><g><path d="M 17 -11.9375 C 17.375 -11.726562 17.40625 -11.21875 17.09375 -10.40625 C 16.632812 -9.8125 16.144531 -9.253906 15.625 -8.734375 C 15.113281 -8.222656 14.554688 -7.765625 13.953125 -7.359375 C 13.898438 -7.359375 13.875 -7.34375 13.875 -7.3125 C 13.46875 -7.03125 13.039062 -6.789062 12.59375 -6.59375 C 8.851562 -5.25 6.945312 -6.035156 6.875 -8.953125 C 5.351562 -7.640625 4.335938 -6.835938 3.828125 -6.546875 C 2.585938 -5.804688 1.25 -5.476562 -0.1875 -5.5625 C -1.25 -5.625 -1.972656 -5.945312 -2.359375 -6.53125 C -2.742188 -7.113281 -2.707031 -7.90625 -2.25 -8.90625 C -1.5625 -10.488281 -0.582031 -11.894531 0.6875 -13.125 C 2.164062 -14.5 3.8125 -15.601562 5.625 -16.4375 C 6.59375 -16.914062 7.609375 -17.101562 8.671875 -17 C 9.734375 -16.9375 10.375 -16.332031 10.59375 -15.1875 C 10.6875 -14.84375 10.601562 -14.539062 10.34375 -14.28125 C 10 -13.96875 9.597656 -13.894531 9.140625 -14.0625 C 9.109375 -14.0625 9.066406 -14.066406 9.015625 -14.078125 C 8.960938 -14.097656 8.921875 -14.125 8.890625 -14.15625 C 8.429688 -14.78125 7.972656 -15.039062 7.515625 -14.9375 C 7.054688 -14.84375 6.566406 -14.640625 6.046875 -14.328125 C 3.640625 -12.921875 1.851562 -10.957031 0.6875 -8.4375 C 0.625 -8.332031 0.582031 -8.210938 0.5625 -8.078125 C 0.550781 -7.941406 0.59375 -7.835938 0.6875 -7.765625 C 0.96875 -7.671875 1.28125 -7.6875 1.625 -7.8125 C 1.96875 -7.945312 2.3125 -8.144531 2.65625 -8.40625 C 3 -8.664062 3.285156 -8.878906 3.515625 -9.046875 C 3.546875 -9.097656 3.5625 -9.125 3.5625 -9.125 C 4.707031 -10.070312 5.828125 -11.046875 6.921875 -12.046875 C 7.398438 -12.566406 8 -12.859375 8.71875 -12.921875 C 9.75 -12.921875 10.179688 -12.457031 10.015625 -11.53125 C 9.921875 -11.1875 9.816406 -10.84375 9.703125 -10.5 C 9.296875 -9.019531 9.28125 -8.148438 9.65625 -7.890625 C 10.03125 -7.628906 10.601562 -7.628906 11.375 -7.890625 C 12.15625 -8.148438 12.929688 -8.640625 13.703125 -9.359375 C 14.472656 -10.085938 15.125 -10.753906 15.65625 -11.359375 C 16.1875 -11.960938 16.632812 -12.15625 17 -11.9375 Z M 17 -11.9375 "/></g></g><g transform="translate(472.909813, 579.775359)"><g><path d="M 20.8125 -12.34375 C 21.144531 -12.257812 21.316406 -12.140625 21.328125 -11.984375 C 21.347656 -11.828125 21.359375 -11.75 21.359375 -11.75 C 20.984375 -11.09375 20.550781 -10.488281 20.0625 -9.9375 C 18.957031 -8.707031 17.671875 -7.722656 16.203125 -6.984375 C 15.484375 -6.578125 14.671875 -6.359375 13.765625 -6.328125 C 11.671875 -6.296875 10.707031 -7.3125 10.875 -9.375 C 10.957031 -9.8125 11.0625 -10.242188 11.1875 -10.671875 C 11.257812 -10.867188 11.3125 -11.070312 11.34375 -11.28125 C 11.550781 -12.03125 11.609375 -12.445312 11.515625 -12.53125 C 11.429688 -12.613281 11.1875 -12.398438 10.78125 -11.890625 C 10.675781 -11.796875 10.578125 -11.691406 10.484375 -11.578125 C 9.859375 -10.828125 9.21875 -10.09375 8.5625 -9.375 C 7.351562 -8 5.976562 -6.84375 4.4375 -5.90625 C 3.507812 -5.363281 2.53125 -5.078125 1.5 -5.046875 C -0.1875 -4.960938 -1.132812 -5.734375 -1.34375 -7.359375 C -1.414062 -8.015625 -1.382812 -8.664062 -1.25 -9.3125 C -0.5625 -11.96875 0.8125 -13.988281 2.875 -15.375 C 4.945312 -16.769531 7.3125 -17.265625 9.96875 -16.859375 C 10.71875 -16.640625 11.265625 -16.84375 11.609375 -17.46875 C 11.742188 -17.695312 11.882812 -17.9375 12.03125 -18.1875 C 12.75 -19.425781 13.453125 -20.660156 14.140625 -21.890625 C 15.429688 -24.265625 16.734375 -26.65625 18.046875 -29.0625 C 19.109375 -30.957031 20.171875 -32.863281 21.234375 -34.78125 C 21.546875 -35.375 21.890625 -35.945312 22.265625 -36.5 C 22.441406 -36.757812 22.65625 -36.914062 22.90625 -36.96875 C 23.164062 -37.03125 23.4375 -37.0625 23.71875 -37.0625 C 23.78125 -37.0625 23.851562 -37.0625 23.9375 -37.0625 C 24.25 -37.0625 24.5 -36.984375 24.6875 -36.828125 C 24.875 -36.671875 24.910156 -36.457031 24.796875 -36.1875 C 24.597656 -35.53125 24.359375 -34.90625 24.078125 -34.3125 C 22.640625 -31.4375 21.28125 -28.523438 20 -25.578125 C 18.726562 -22.640625 17.476562 -19.675781 16.25 -16.6875 C 15.84375 -15.65625 15.425781 -14.625 15 -13.59375 C 14.488281 -12.394531 14.0625 -11.160156 13.71875 -9.890625 C 13.625 -9.609375 13.578125 -9.332031 13.578125 -9.0625 C 13.578125 -8.789062 13.707031 -8.550781 13.96875 -8.34375 C 14.144531 -8.238281 14.328125 -8.21875 14.515625 -8.28125 C 14.703125 -8.351562 14.90625 -8.4375 15.125 -8.53125 C 15.15625 -8.582031 15.203125 -8.625 15.265625 -8.65625 C 16.742188 -9.507812 18.101562 -10.539062 19.34375 -11.75 C 19.539062 -11.945312 19.753906 -12.113281 19.984375 -12.25 C 20.210938 -12.394531 20.488281 -12.425781 20.8125 -12.34375 Z M 9.234375 -13.859375 C 9.410156 -14.140625 9.460938 -14.40625 9.390625 -14.65625 C 9.316406 -14.914062 9.140625 -15.109375 8.859375 -15.234375 C 8.285156 -15.546875 7.671875 -15.585938 7.015625 -15.359375 C 5.398438 -14.867188 4.050781 -13.941406 2.96875 -12.578125 C 1.882812 -11.222656 1.296875 -9.726562 1.203125 -8.09375 C 1.234375 -8.007812 1.25 -7.953125 1.25 -7.921875 C 1.25 -7.785156 1.25 -7.644531 1.25 -7.5 C 1.382812 -6.75 1.847656 -6.601562 2.640625 -7.0625 C 3.429688 -7.53125 4.3125 -8.28125 5.28125 -9.3125 C 6.257812 -10.34375 7.132812 -11.320312 7.90625 -12.25 C 8.6875 -13.175781 9.128906 -13.710938 9.234375 -13.859375 Z M 9.234375 -13.859375 "/></g></g><g transform="translate(492.503562, 579.775359)"><g><path d="M 9.3125 -9.875 C 8.476562 -8.882812 7.488281 -7.972656 6.34375 -7.140625 C 5.207031 -6.316406 3.921875 -5.757812 2.484375 -5.46875 C 1.046875 -5.1875 -0.0664062 -5.296875 -0.859375 -5.796875 C -1.660156 -6.296875 -1.820312 -7.40625 -1.34375 -9.125 C -0.71875 -10.90625 0.144531 -12.597656 1.25 -14.203125 C 1.5 -14.546875 1.859375 -14.789062 2.328125 -14.9375 C 2.671875 -15.007812 2.96875 -14.945312 3.21875 -14.75 C 3.476562 -14.5625 3.578125 -14.316406 3.515625 -14.015625 C 3.285156 -13.453125 3.03125 -12.890625 2.75 -12.328125 C 2.46875 -11.765625 2.28125 -11.398438 2.1875 -11.234375 C 1.632812 -10.234375 1.25 -9.1875 1.03125 -8.09375 C 1.03125 -7.46875 1.863281 -7.425781 3.53125 -7.96875 C 5.207031 -8.519531 6.832031 -9.523438 8.40625 -10.984375 C 9.988281 -12.441406 10.742188 -12.867188 10.671875 -12.265625 C 10.609375 -11.671875 10.15625 -10.875 9.3125 -9.875 Z M 5.234375 -17.71875 C 5.148438 -17.65625 4.988281 -17.582031 4.75 -17.5 C 4.507812 -17.414062 4.25 -17.351562 3.96875 -17.3125 C 3.695312 -17.269531 3.484375 -17.3125 3.328125 -17.4375 C 3.171875 -17.5625 3.164062 -17.8125 3.3125 -18.1875 C 3.5625 -18.84375 3.820312 -19.414062 4.09375 -19.90625 C 4.363281 -20.40625 4.71875 -20.953125 5.15625 -21.546875 C 5.4375 -21.804688 5.738281 -21.945312 6.0625 -21.96875 C 6.394531 -22 6.671875 -21.914062 6.890625 -21.71875 C 7.109375 -21.519531 7.171875 -21.25 7.078125 -20.90625 C 6.734375 -19.675781 6.117188 -18.613281 5.234375 -17.71875 Z M 5.234375 -17.71875 "/></g></g><g transform="translate(501.644187, 579.775359)"><g><path d="M 13.359375 -9 C 12.453125 -8.113281 11.394531 -7.351562 10.1875 -6.71875 C 8.988281 -6.082031 7.984375 -5.664062 7.171875 -5.46875 C 6.359375 -5.28125 5.523438 -5.171875 4.671875 -5.140625 C 3.296875 -5.078125 2.03125 -5.265625 0.875 -5.703125 C -1.019531 -6.460938 -1.679688 -7.921875 -1.109375 -10.078125 C -0.554688 -11.941406 0.550781 -13.394531 2.21875 -14.4375 C 3.894531 -15.488281 5.625 -16 7.40625 -15.96875 C 7.40625 -15.96875 7.421875 -15.96875 7.453125 -15.96875 C 7.910156 -16 8.34375 -15.96875 8.75 -15.875 C 9.4375 -15.625 9.875 -15.21875 10.0625 -14.65625 C 10.25 -14.09375 10.125 -13.46875 9.6875 -12.78125 C 8.6875 -11.257812 7.328125 -10.414062 5.609375 -10.25 C 4.460938 -10.132812 3.359375 -10.1875 2.296875 -10.40625 C 2.097656 -10.4375 1.921875 -10.378906 1.765625 -10.234375 C 1.609375 -10.097656 1.515625 -9.929688 1.484375 -9.734375 C 1.171875 -8.390625 1.582031 -7.53125 2.71875 -7.15625 C 4.125 -6.664062 5.585938 -6.664062 7.109375 -7.15625 C 8.859375 -7.695312 10.519531 -8.722656 12.09375 -10.234375 C 13.675781 -11.753906 14.585938 -12.460938 14.828125 -12.359375 C 15.066406 -12.265625 15.140625 -11.972656 15.046875 -11.484375 C 14.828125 -10.722656 14.265625 -9.894531 13.359375 -9 Z M 3.375 -12.78125 C 3.28125 -12.664062 3.210938 -12.539062 3.171875 -12.40625 C 3.140625 -12.28125 3.191406 -12.160156 3.328125 -12.046875 C 3.878906 -11.734375 4.472656 -11.617188 5.109375 -11.703125 C 5.753906 -11.796875 6.296875 -12.039062 6.734375 -12.4375 C 7.179688 -12.832031 7.375 -13.320312 7.3125 -13.90625 C 7.269531 -14.101562 7.160156 -14.226562 6.984375 -14.28125 C 6.816406 -14.34375 6.644531 -14.359375 6.46875 -14.328125 C 5.3125 -14.117188 4.28125 -13.601562 3.375 -12.78125 Z M 3.375 -12.78125 "/></g></g><g transform="translate(515.284811, 579.775359)"><g><path d="M 11.34375 -11.890625 C 8.875 -10.960938 7.09375 -10.210938 6 -9.640625 C 5.207031 -9.242188 4.75 -8.914062 4.625 -8.65625 C 4.507812 -8.40625 4.601562 -7.9375 4.90625 -7.25 C 4.90625 -7.21875 4.925781 -7.171875 4.96875 -7.109375 C 5.3125 -6.273438 5.515625 -5.414062 5.578125 -4.53125 C 5.691406 -2.726562 4.164062 -1.46875 1 -0.75 C -2.164062 -0.03125 -4.285156 -0.00390625 -5.359375 -0.671875 C -6.429688 -1.347656 -6.757812 -2.203125 -6.34375 -3.234375 C -5.925781 -4.265625 -4.847656 -5.3125 -3.109375 -6.375 C -1.378906 -7.4375 -0.222656 -8.203125 0.359375 -8.671875 C 0.953125 -9.140625 1.128906 -9.664062 0.890625 -10.25 C 0.816406 -10.445312 0.734375 -10.648438 0.640625 -10.859375 C 0.429688 -11.335938 0.21875 -11.835938 0 -12.359375 C -0.40625 -13.296875 -0.582031 -14.21875 -0.53125 -15.125 C -0.476562 -16.03125 -0.144531 -16.789062 0.46875 -17.40625 C 1.09375 -18.019531 2.054688 -18.351562 3.359375 -18.40625 C 4.085938 -18.4375 4.738281 -18.335938 5.3125 -18.109375 C 5.894531 -17.878906 6.359375 -17.460938 6.703125 -16.859375 C 6.984375 -16.429688 6.898438 -16.046875 6.453125 -15.703125 C 6.148438 -15.472656 5.828125 -15.441406 5.484375 -15.609375 C 5.265625 -15.703125 5.054688 -15.835938 4.859375 -16.015625 C 4.859375 -16.054688 4.859375 -16.078125 4.859375 -16.078125 C 4.765625 -16.140625 4.675781 -16.203125 4.59375 -16.265625 C 4.5 -16.410156 4.398438 -16.519531 4.296875 -16.59375 C 3.890625 -16.894531 3.476562 -16.984375 3.0625 -16.859375 C 2.644531 -16.742188 2.335938 -16.429688 2.140625 -15.921875 C 1.992188 -15.515625 1.921875 -15.097656 1.921875 -14.671875 C 1.953125 -14.160156 2.070312 -13.660156 2.28125 -13.171875 C 2.414062 -12.878906 2.539062 -12.609375 2.65625 -12.359375 C 2.914062 -11.671875 3.128906 -11.195312 3.296875 -10.9375 C 3.472656 -10.675781 3.679688 -10.566406 3.921875 -10.609375 C 4.171875 -10.648438 6.390625 -11.441406 10.578125 -12.984375 C 11.484375 -13.285156 11.738281 -12.921875 11.34375 -11.890625 Z M 1.203125 -2.9375 C 2.296875 -3.3125 2.753906 -4.046875 2.578125 -5.140625 C 2.578125 -5.210938 2.5625 -5.296875 2.53125 -5.390625 C 2.46875 -5.984375 2.34375 -6.441406 2.15625 -6.765625 C 1.96875 -7.085938 1.546875 -7.078125 0.890625 -6.734375 C -0.734375 -5.804688 -2.234375 -4.726562 -3.609375 -3.5 C -3.703125 -3.382812 -3.789062 -3.28125 -3.875 -3.1875 C -3.875 -3.1875 -3.890625 -3.164062 -3.921875 -3.125 C -4.015625 -3 -4.03125 -2.859375 -3.96875 -2.703125 C -3.90625 -2.546875 -3.765625 -2.46875 -3.546875 -2.46875 C -1.929688 -2.21875 -0.347656 -2.375 1.203125 -2.9375 Z M 1.203125 -2.9375 "/></g></g></g><g fill="#ff66c4" fill-opacity="1"><g transform="translate(525.667623, 579.775359)"><g/></g></g><g transform="matrix(1, 0, 0, 1, 298, 550)"><g clip-path="url(#441ac1ade3)"><g fill="#ffffff" fill-opacity="1"><g transform="translate(0.735048, 42.16338)"><g><path d="M 26.953125 -11.28125 C 26.441406 -8.488281 25.335938 -6.132812 23.640625 -4.21875 C 25.066406 -2.789062 26.53125 -1.472656 28.03125 -0.265625 C 29.53125 0.941406 31.003906 1.992188 32.453125 2.890625 C 33.898438 3.785156 35.296875 4.484375 36.640625 4.984375 C 37.984375 5.492188 39.210938 5.75 40.328125 5.75 C 40.773438 5.75 41.222656 5.707031 41.671875 5.625 L 41.671875 6.109375 C 41.503906 6.179688 41.285156 6.28125 41.015625 6.40625 C 40.742188 6.53125 40.40625 6.644531 40 6.75 C 39.601562 6.863281 39.132812 6.960938 38.59375 7.046875 C 38.0625 7.140625 37.453125 7.1875 36.765625 7.1875 C 35.671875 7.1875 34.488281 6.957031 33.21875 6.5 C 31.957031 6.039062 30.644531 5.410156 29.28125 4.609375 C 27.925781 3.804688 26.550781 2.847656 25.15625 1.734375 C 23.769531 0.628906 22.410156 -0.578125 21.078125 -1.890625 C 19.859375 -1.066406 18.515625 -0.429688 17.046875 0.015625 C 15.585938 0.460938 13.992188 0.6875 12.265625 0.6875 C 10.691406 0.6875 9.28125 0.488281 8.03125 0.09375 C 6.78125 -0.289062 5.71875 -0.847656 4.84375 -1.578125 C 3.976562 -2.304688 3.3125 -3.1875 2.84375 -4.21875 C 2.375 -5.257812 2.140625 -6.421875 2.140625 -7.703125 C 2.140625 -8.929688 2.367188 -10.023438 2.828125 -10.984375 C 3.296875 -11.953125 3.90625 -12.816406 4.65625 -13.578125 C 5.40625 -14.347656 6.257812 -15.046875 7.21875 -15.671875 C 8.1875 -16.304688 9.175781 -16.921875 10.1875 -17.515625 C 9.78125 -18.554688 9.460938 -19.570312 9.234375 -20.5625 C 9.015625 -21.5625 8.90625 -22.519531 8.90625 -23.4375 C 8.90625 -24.539062 9.082031 -25.535156 9.4375 -26.421875 C 9.789062 -27.304688 10.273438 -28.054688 10.890625 -28.671875 C 11.515625 -29.296875 12.238281 -29.773438 13.0625 -30.109375 C 13.894531 -30.441406 14.789062 -30.609375 15.75 -30.609375 C 16.445312 -30.609375 17.101562 -30.507812 17.71875 -30.3125 C 18.332031 -30.125 18.867188 -29.835938 19.328125 -29.453125 C 19.785156 -29.066406 20.144531 -28.582031 20.40625 -28 C 20.675781 -27.425781 20.8125 -26.765625 20.8125 -26.015625 C 20.8125 -25.066406 20.609375 -24.210938 20.203125 -23.453125 C 19.804688 -22.691406 19.28125 -21.992188 18.625 -21.359375 C 17.976562 -20.734375 17.234375 -20.148438 16.390625 -19.609375 C 15.554688 -19.066406 14.691406 -18.535156 13.796875 -18.015625 C 14.242188 -16.960938 14.773438 -15.894531 15.390625 -14.8125 C 16.015625 -13.738281 16.695312 -12.664062 17.4375 -11.59375 C 18.1875 -10.53125 18.988281 -9.476562 19.84375 -8.4375 C 20.695312 -7.40625 21.578125 -6.398438 22.484375 -5.421875 C 23.160156 -6.328125 23.691406 -7.359375 24.078125 -8.515625 C 24.460938 -9.679688 24.65625 -10.957031 24.65625 -12.34375 C 24.65625 -13.519531 24.585938 -14.503906 24.453125 -15.296875 C 24.316406 -16.085938 24.179688 -16.765625 24.046875 -17.328125 L 24.046875 -17.40625 L 27.8125 -17.40625 L 27.8125 -17.328125 C 27.71875 -16.984375 27.644531 -16.601562 27.59375 -16.1875 C 27.550781 -15.78125 27.5 -15.328125 27.4375 -14.828125 C 27.382812 -14.335938 27.320312 -13.789062 27.25 -13.1875 C 27.175781 -12.59375 27.078125 -11.957031 26.953125 -11.28125 Z M 13.84375 -1.203125 C 14.988281 -1.203125 16.082031 -1.351562 17.125 -1.65625 C 18.164062 -1.96875 19.117188 -2.414062 19.984375 -3 C 19.035156 -4.007812 18.113281 -5.050781 17.21875 -6.125 C 16.320312 -7.195312 15.476562 -8.285156 14.6875 -9.390625 C 13.90625 -10.503906 13.179688 -11.625 12.515625 -12.75 C 11.859375 -13.882812 11.285156 -14.992188 10.796875 -16.078125 C 10.140625 -15.628906 9.523438 -15.160156 8.953125 -14.671875 C 8.390625 -14.179688 7.894531 -13.640625 7.46875 -13.046875 C 7.050781 -12.460938 6.71875 -11.820312 6.46875 -11.125 C 6.226562 -10.4375 6.109375 -9.679688 6.109375 -8.859375 C 6.109375 -7.765625 6.300781 -6.75 6.6875 -5.8125 C 7.070312 -4.875 7.609375 -4.0625 8.296875 -3.375 C 8.984375 -2.695312 9.796875 -2.164062 10.734375 -1.78125 C 11.679688 -1.394531 12.71875 -1.203125 13.84375 -1.203125 Z M 12.265625 -24.546875 C 12.265625 -23.734375 12.351562 -22.894531 12.53125 -22.03125 C 12.71875 -21.175781 12.972656 -20.285156 13.296875 -19.359375 C 13.972656 -19.796875 14.609375 -20.242188 15.203125 -20.703125 C 15.804688 -21.160156 16.328125 -21.660156 16.765625 -22.203125 C 17.203125 -22.742188 17.546875 -23.320312 17.796875 -23.9375 C 18.054688 -24.550781 18.1875 -25.226562 18.1875 -25.96875 C 18.1875 -26.394531 18.132812 -26.789062 18.03125 -27.15625 C 17.925781 -27.53125 17.765625 -27.859375 17.546875 -28.140625 C 17.335938 -28.429688 17.066406 -28.65625 16.734375 -28.8125 C 16.410156 -28.976562 16.03125 -29.0625 15.59375 -29.0625 C 14.476562 -29.0625 13.644531 -28.660156 13.09375 -27.859375 C 12.539062 -27.066406 12.265625 -25.960938 12.265625 -24.546875 Z M 12.265625 -24.546875 "/></g></g></g></g></g><g fill="#6aaaff" fill-opacity="1"><g transform="translate(328.12068, 636.925356)"><g><path d="M 93.796875 -60.984375 C 95.316406 -56.722656 94.988281 -52.457031 92.8125 -48.1875 C 92.613281 -47.78125 92.367188 -47.410156 92.078125 -47.078125 C 91.785156 -46.753906 91.382812 -46.539062 90.875 -46.4375 C 90.53125 -46.375 90.226562 -46.453125 89.96875 -46.671875 C 89.707031 -46.898438 89.609375 -47.164062 89.671875 -47.46875 C 89.878906 -48.0625 90.082031 -48.628906 90.28125 -49.171875 C 90.394531 -49.453125 90.519531 -49.726562 90.65625 -50 C 91.71875 -52.945312 91.90625 -55.867188 91.21875 -58.765625 C 90.46875 -62.054688 88.492188 -64.21875 85.296875 -65.25 C 83.429688 -65.8125 81.550781 -66.113281 79.65625 -66.15625 C 77.769531 -66.207031 75.851562 -66.0625 73.90625 -65.71875 C 67.945312 -64.625 62.132812 -62.890625 56.46875 -60.515625 C 47.726562 -56.972656 39.40625 -52.5625 31.5 -47.28125 C 24.707031 -42.726562 18.59375 -37.375 13.15625 -31.21875 C 11.257812 -29.09375 9.546875 -26.832031 8.015625 -24.4375 C 6.484375 -22.050781 5.257812 -19.5 4.34375 -16.78125 C 3.445312 -14.082031 3.015625 -11.359375 3.046875 -8.609375 C 3.160156 -5.640625 3.910156 -3.101562 5.296875 -1 C 6.691406 1.09375 8.5625 2.617188 10.90625 3.578125 C 13.257812 4.535156 15.914062 4.773438 18.875 4.296875 C 22.65625 3.648438 26.234375 2.296875 29.609375 0.234375 C 31.609375 -0.941406 33.472656 -2.265625 35.203125 -3.734375 C 36.941406 -5.210938 38.613281 -6.78125 40.21875 -8.4375 C 44.113281 -12.5 47.59375 -16.882812 50.65625 -21.59375 C 52.4375 -24.375 53.910156 -27.3125 55.078125 -30.40625 C 55.140625 -30.507812 55.1875 -30.632812 55.21875 -30.78125 C 55.5 -31.5 55.8125 -32.203125 56.15625 -32.890625 C 56.707031 -33.835938 57.566406 -34.25 58.734375 -34.125 C 59.453125 -34.050781 59.851562 -33.640625 59.9375 -32.890625 C 59.9375 -31.773438 59.722656 -30.6875 59.296875 -29.625 C 56.691406 -22.175781 53.859375 -14.800781 50.796875 -7.5 C 50.734375 -7.332031 50.660156 -7.160156 50.578125 -6.984375 C 50.410156 -6.640625 50.265625 -6.296875 50.140625 -5.953125 C 50.085938 -5.859375 50.046875 -5.757812 50.015625 -5.65625 C 49.847656 -5.25 49.75 -4.816406 49.71875 -4.359375 C 49.71875 -4.191406 49.773438 -4.0625 49.890625 -3.96875 C 50.003906 -3.882812 50.148438 -3.8125 50.328125 -3.75 C 50.546875 -3.675781 50.71875 -3.578125 50.84375 -3.453125 C 50.882812 -3.453125 50.921875 -3.425781 50.953125 -3.375 C 51.046875 -3.28125 51.128906 -3.179688 51.203125 -3.078125 C 51.273438 -2.984375 51.238281 -2.847656 51.09375 -2.671875 C 51 -2.503906 50.851562 -2.363281 50.65625 -2.25 C 50.4375 -2.144531 50.207031 -2.09375 49.96875 -2.09375 C 49.3125 -2.164062 48.796875 -2.019531 48.421875 -1.65625 C 48.046875 -1.300781 47.734375 -0.84375 47.484375 -0.28125 C 46.566406 1.675781 45.625 3.613281 44.65625 5.53125 C 42.664062 9.59375 40.429688 13.546875 37.953125 17.390625 C 36.398438 19.796875 34.664062 22.070312 32.75 24.21875 C 30.757812 26.476562 28.40625 28.242188 25.6875 29.515625 C 24.207031 30.203125 22.691406 30.582031 21.140625 30.65625 C 19.359375 30.78125 17.910156 30.351562 16.796875 29.375 C 15.679688 28.40625 15.050781 27.03125 14.90625 25.25 C 14.800781 23.726562 15.003906 22.210938 15.515625 20.703125 C 16.597656 17.773438 18.1875 15.164062 20.28125 12.875 C 25.601562 6.78125 31.960938 2.238281 39.359375 -0.75 C 40.585938 -1.238281 41.820312 -1.671875 43.0625 -2.046875 C 43.195312 -2.117188 43.351562 -2.171875 43.53125 -2.203125 C 44.445312 -2.472656 45.117188 -3.035156 45.546875 -3.890625 C 45.921875 -4.796875 46.3125 -5.695312 46.71875 -6.59375 C 47.851562 -8.96875 48.820312 -11.40625 49.625 -13.90625 C 49.65625 -13.976562 49.65625 -14.046875 49.625 -14.109375 C 49.570312 -14.140625 49.546875 -14.171875 49.546875 -14.203125 C 49.171875 -14.140625 48.875 -13.988281 48.65625 -13.75 C 48.4375 -13.507812 48.21875 -13.253906 48 -12.984375 C 47.90625 -12.816406 47.789062 -12.644531 47.65625 -12.46875 C 45.007812 -9.300781 42.15625 -6.328125 39.09375 -3.546875 C 35.375 -0.160156 31.25 2.453125 26.71875 4.296875 C 24.144531 5.328125 21.546875 6.003906 18.921875 6.328125 C 16.304688 6.660156 13.695312 6.566406 11.09375 6.046875 C 8.070312 5.441406 5.53125 3.992188 3.46875 1.703125 C 1.40625 -0.585938 0.160156 -3.46875 -0.265625 -6.9375 C -0.492188 -9.113281 -0.410156 -11.253906 -0.015625 -13.359375 C 0.367188 -15.472656 1.015625 -17.5625 1.921875 -19.625 C 2.953125 -21.9375 4.160156 -24.125 5.546875 -26.1875 C 6.941406 -28.25 8.484375 -30.238281 10.171875 -32.15625 C 16.109375 -38.894531 22.859375 -44.6875 30.421875 -49.53125 C 35.828125 -53.039062 41.390625 -56.160156 47.109375 -58.890625 C 52.828125 -61.628906 58.734375 -63.90625 64.828125 -65.71875 C 67.503906 -66.550781 70.21875 -67.179688 72.96875 -67.609375 C 75.71875 -68.035156 78.46875 -68.195312 81.21875 -68.09375 C 84.101562 -68 86.804688 -67.332031 89.328125 -66.09375 C 91.515625 -64.988281 93.003906 -63.285156 93.796875 -60.984375 Z M 43.21875 0.75 C 43.28125 0.5 43.242188 0.296875 43.109375 0.140625 C 42.984375 -0.015625 42.796875 -0.0507812 42.546875 0.03125 C 41.992188 0.195312 41.460938 0.382812 40.953125 0.59375 C 34.617188 3.375 29.046875 7.296875 24.234375 12.359375 C 22.484375 14.171875 20.992188 16.175781 19.765625 18.375 C 18.828125 19.925781 18.253906 21.75 18.046875 23.84375 C 18.046875 23.875 18.046875 23.941406 18.046875 24.046875 C 18.015625 24.328125 18.015625 24.6875 18.046875 25.125 C 18.222656 26.707031 18.765625 27.765625 19.671875 28.296875 C 20.585938 28.835938 21.804688 28.796875 23.328125 28.171875 C 25.515625 27.171875 27.4375 25.765625 29.09375 23.953125 C 31.15625 21.785156 32.972656 19.441406 34.546875 16.921875 C 36.128906 14.484375 37.597656 11.984375 38.953125 9.421875 C 40.316406 6.859375 41.613281 4.273438 42.84375 1.671875 C 42.988281 1.359375 43.113281 1.066406 43.21875 0.796875 C 43.21875 0.765625 43.21875 0.75 43.21875 0.75 Z M 43.21875 0.75 "/></g></g><g transform="translate(388.401928, 636.925356)"><g><path d="M 13.359375 -9 C 12.453125 -8.113281 11.394531 -7.351562 10.1875 -6.71875 C 8.988281 -6.082031 7.984375 -5.664062 7.171875 -5.46875 C 6.359375 -5.28125 5.523438 -5.171875 4.671875 -5.140625 C 3.296875 -5.078125 2.03125 -5.265625 0.875 -5.703125 C -1.019531 -6.460938 -1.679688 -7.921875 -1.109375 -10.078125 C -0.554688 -11.941406 0.550781 -13.394531 2.21875 -14.4375 C 3.894531 -15.488281 5.625 -16 7.40625 -15.96875 C 7.40625 -15.96875 7.421875 -15.96875 7.453125 -15.96875 C 7.910156 -16 8.34375 -15.96875 8.75 -15.875 C 9.4375 -15.625 9.875 -15.21875 10.0625 -14.65625 C 10.25 -14.09375 10.125 -13.46875 9.6875 -12.78125 C 8.6875 -11.257812 7.328125 -10.414062 5.609375 -10.25 C 4.460938 -10.132812 3.359375 -10.1875 2.296875 -10.40625 C 2.097656 -10.4375 1.921875 -10.378906 1.765625 -10.234375 C 1.609375 -10.097656 1.515625 -9.929688 1.484375 -9.734375 C 1.171875 -8.390625 1.582031 -7.53125 2.71875 -7.15625 C 4.125 -6.664062 5.585938 -6.664062 7.109375 -7.15625 C 8.859375 -7.695312 10.519531 -8.722656 12.09375 -10.234375 C 13.675781 -11.753906 14.585938 -12.460938 14.828125 -12.359375 C 15.066406 -12.265625 15.140625 -11.972656 15.046875 -11.484375 C 14.828125 -10.722656 14.265625 -9.894531 13.359375 -9 Z M 3.375 -12.78125 C 3.28125 -12.664062 3.210938 -12.539062 3.171875 -12.40625 C 3.140625 -12.28125 3.191406 -12.160156 3.328125 -12.046875 C 3.878906 -11.734375 4.472656 -11.617188 5.109375 -11.703125 C 5.753906 -11.796875 6.296875 -12.039062 6.734375 -12.4375 C 7.179688 -12.832031 7.375 -13.320312 7.3125 -13.90625 C 7.269531 -14.101562 7.160156 -14.226562 6.984375 -14.28125 C 6.816406 -14.34375 6.644531 -14.359375 6.46875 -14.328125 C 5.3125 -14.117188 4.28125 -13.601562 3.375 -12.78125 Z M 3.375 -12.78125 "/></g></g><g transform="translate(402.042552, 636.925356)"><g><path d="M 18.5625 -11.703125 C 18.8125 -11.390625 18.5 -10.816406 17.625 -9.984375 C 16.75 -9.160156 15.816406 -8.46875 14.828125 -7.90625 C 13.847656 -7.34375 12.710938 -6.78125 11.421875 -6.21875 C 10.554688 -5.84375 9.640625 -5.71875 8.671875 -5.84375 C 7.703125 -5.96875 7.21875 -6.550781 7.21875 -7.59375 C 7.21875 -8.644531 7.460938 -9.6875 7.953125 -10.71875 C 8.429688 -11.78125 8.535156 -12.328125 8.265625 -12.359375 C 7.992188 -12.390625 7.425781 -12.128906 6.5625 -11.578125 C 4.332031 -10.109375 2.253906 -8.429688 0.328125 -6.546875 C -0.191406 -5.921875 -0.847656 -5.578125 -1.640625 -5.515625 C -2.046875 -5.515625 -2.363281 -5.640625 -2.59375 -5.890625 C -2.820312 -6.148438 -2.847656 -6.429688 -2.671875 -6.734375 C -1.296875 -9.273438 0.09375 -11.789062 1.5 -14.28125 C 1.8125 -14.789062 2.28125 -15.109375 2.90625 -15.234375 C 3.175781 -15.285156 3.421875 -15.203125 3.640625 -14.984375 C 3.867188 -14.773438 3.984375 -14.539062 3.984375 -14.28125 C 3.953125 -14.03125 3.851562 -13.734375 3.6875 -13.390625 C 3.601562 -13.179688 3.523438 -12.984375 3.453125 -12.796875 C 3.390625 -12.609375 3.367188 -12.453125 3.390625 -12.328125 C 3.410156 -12.203125 3.507812 -12.164062 3.6875 -12.21875 C 3.914062 -12.34375 4.148438 -12.472656 4.390625 -12.609375 C 4.984375 -12.953125 5.550781 -13.28125 6.09375 -13.59375 C 6.582031 -13.875 7.09375 -14.125 7.625 -14.34375 C 8.15625 -14.5625 8.707031 -14.710938 9.28125 -14.796875 C 10.21875 -14.859375 10.878906 -14.644531 11.265625 -14.15625 C 11.660156 -13.675781 11.710938 -13.003906 11.421875 -12.140625 C 11.109375 -11.359375 10.78125 -10.585938 10.4375 -9.828125 C 10.007812 -9.109375 9.9375 -8.5625 10.21875 -8.1875 C 10.5 -7.8125 11.804688 -8.238281 14.140625 -9.46875 L 15.890625 -10.5 C 17.546875 -11.5625 18.4375 -11.960938 18.5625 -11.703125 Z M 18.5625 -11.703125 "/></g></g><g transform="translate(419.222239, 636.925356)"><g><path d="M 14.65625 -11.328125 C 12.5625 -8.859375 10.507812 -7.035156 8.5 -5.859375 C 6.488281 -4.691406 4.335938 -4.304688 2.046875 -4.703125 C -0.242188 -5.097656 -1.1875 -6.632812 -0.78125 -9.3125 C -0.5 -10.65625 -0.113281 -11.96875 0.375 -13.25 C 1.582031 -16.226562 2.800781 -19.195312 4.03125 -22.15625 C 4.4375 -23.21875 4.867188 -24.285156 5.328125 -25.359375 C 5.429688 -25.597656 5.53125 -25.832031 5.625 -26.0625 C 5.800781 -26.457031 5.972656 -26.859375 6.140625 -27.265625 C 6.390625 -27.953125 6.117188 -28.3125 5.328125 -28.34375 C 4.867188 -28.34375 4.421875 -28.34375 3.984375 -28.34375 C 3.785156 -28.34375 3.5625 -28.34375 3.3125 -28.34375 C 3.070312 -28.3125 2.828125 -28.28125 2.578125 -28.25 C 2.171875 -28.21875 1.769531 -28.203125 1.375 -28.203125 C 0.976562 -28.203125 0.609375 -28.300781 0.265625 -28.5 C 0.171875 -28.53125 0.09375 -28.585938 0.03125 -28.671875 C -0.0195312 -28.765625 -0.046875 -28.863281 -0.046875 -28.96875 C -0.015625 -29.03125 0.0351562 -29.101562 0.109375 -29.1875 C 0.179688 -29.28125 0.269531 -29.34375 0.375 -29.375 C 0.71875 -29.507812 1.078125 -29.609375 1.453125 -29.671875 C 2.421875 -29.722656 3.382812 -29.765625 4.34375 -29.796875 C 4.71875 -29.796875 5.046875 -29.796875 5.328125 -29.796875 C 5.953125 -29.796875 6.414062 -29.816406 6.71875 -29.859375 C 7.019531 -29.910156 7.265625 -30.078125 7.453125 -30.359375 C 7.640625 -30.640625 7.859375 -31.066406 8.109375 -31.640625 C 8.253906 -31.953125 8.425781 -32.296875 8.625 -32.671875 C 9.144531 -33.765625 9.660156 -34.882812 10.171875 -36.03125 C 10.410156 -36.539062 10.65625 -37.039062 10.90625 -37.53125 C 11.101562 -38.007812 11.421875 -38.382812 11.859375 -38.65625 C 12.285156 -38.851562 12.65625 -38.835938 12.96875 -38.609375 C 13.0625 -38.546875 13.132812 -38.441406 13.1875 -38.296875 C 13.238281 -38.160156 13.265625 -38.035156 13.265625 -37.921875 C 13.265625 -37.316406 13.109375 -36.71875 12.796875 -36.125 C 12.734375 -36 12.664062 -35.847656 12.59375 -35.671875 C 12.382812 -35.109375 12.164062 -34.539062 11.9375 -33.96875 C 11.476562 -32.90625 11.046875 -31.816406 10.640625 -30.703125 C 10.535156 -30.503906 10.53125 -30.328125 10.625 -30.171875 C 10.726562 -30.015625 10.882812 -29.9375 11.09375 -29.9375 C 12.195312 -29.90625 13.28125 -29.890625 14.34375 -29.890625 C 14.894531 -29.890625 15.441406 -29.890625 15.984375 -29.890625 C 17.703125 -29.859375 18.390625 -29.613281 18.046875 -29.15625 C 17.816406 -28.894531 17.5625 -28.742188 17.28125 -28.703125 C 17.007812 -28.660156 16.734375 -28.664062 16.453125 -28.71875 C 16.285156 -28.71875 16.113281 -28.71875 15.9375 -28.71875 C 14.1875 -28.601562 12.453125 -28.53125 10.734375 -28.5 C 9.941406 -28.5 9.410156 -28.140625 9.140625 -27.421875 C 8.859375 -26.734375 8.585938 -26.046875 8.328125 -25.359375 C 7.929688 -24.453125 7.5625 -23.570312 7.21875 -22.71875 C 6.875 -21.90625 6.53125 -21.082031 6.1875 -20.25 C 5.300781 -18.15625 4.441406 -16.054688 3.609375 -13.953125 C 3.097656 -12.578125 2.691406 -11.171875 2.390625 -9.734375 C 1.734375 -7.117188 2.742188 -6.117188 5.421875 -6.734375 C 8.046875 -7.359375 10.796875 -9.25 13.671875 -12.40625 C 14.921875 -13.195312 15.25 -12.835938 14.65625 -11.328125 Z M 14.65625 -11.328125 "/></g></g><g transform="translate(432.534738, 636.925356)"><g><path d="M 11.34375 -11.1875 C 11.863281 -11.695312 12.296875 -11.984375 12.640625 -12.046875 C 12.984375 -12.109375 13.203125 -12.050781 13.296875 -11.875 C 13.398438 -11.707031 13.335938 -11.476562 13.109375 -11.1875 C 11.734375 -9.53125 10.191406 -8.097656 8.484375 -6.890625 C 6.785156 -5.691406 5.03125 -5 3.21875 -4.8125 C 1.414062 -4.625 0.328125 -5.609375 -0.046875 -7.765625 C -0.328125 -9.898438 0.96875 -14.253906 3.84375 -20.828125 C 6.71875 -27.410156 8.992188 -32.804688 10.671875 -37.015625 C 10.804688 -37.390625 11.015625 -37.71875 11.296875 -38 C 11.671875 -38.375 12.117188 -38.457031 12.640625 -38.25 C 12.804688 -38.175781 12.972656 -38.050781 13.140625 -37.875 C 13.316406 -37.707031 13.375 -37.40625 13.3125 -36.96875 C 5.925781 -19.4375 2.347656 -9.90625 2.578125 -8.375 C 2.816406 -6.84375 3.804688 -6.460938 5.546875 -7.234375 C 7.285156 -8.003906 8.628906 -8.789062 9.578125 -9.59375 C 10.523438 -10.40625 11.113281 -10.9375 11.34375 -11.1875 Z M 11.34375 -11.1875 "/></g></g><g transform="translate(444.23005, 636.925356)"><g><path d="M 24.5 -11.75 C 25.039062 -12.09375 25.46875 -12.175781 25.78125 -12 C 26.09375 -11.832031 25.976562 -11.347656 25.4375 -10.546875 C 24.75 -9.628906 23.515625 -8.644531 21.734375 -7.59375 C 19.960938 -6.550781 18.394531 -6.09375 17.03125 -6.21875 C 15.675781 -6.351562 15.285156 -7.359375 15.859375 -9.234375 C 16.429688 -11.109375 16.738281 -12.160156 16.78125 -12.390625 C 16.832031 -12.617188 16.789062 -12.75 16.65625 -12.78125 C 16.519531 -12.8125 16.210938 -12.65625 15.734375 -12.3125 C 14.328125 -11.34375 12.953125 -10.328125 11.609375 -9.265625 C 11.023438 -8.828125 10.453125 -8.363281 9.890625 -7.875 C 9.546875 -7.5625 9.1875 -7.25 8.8125 -6.9375 C 8.8125 -6.9375 8.796875 -6.921875 8.765625 -6.890625 C 8.359375 -6.484375 7.859375 -6.210938 7.265625 -6.078125 C 7.003906 -5.992188 6.722656 -5.960938 6.421875 -5.984375 C 6.128906 -6.015625 5.878906 -6.128906 5.671875 -6.328125 C 5.441406 -6.566406 5.359375 -6.8125 5.421875 -7.0625 C 5.484375 -7.320312 5.675781 -7.707031 6 -8.21875 C 6.332031 -8.738281 6.695312 -9.304688 7.09375 -9.921875 C 7.488281 -10.546875 7.707031 -10.925781 7.75 -11.0625 C 7.800781 -11.207031 7.78125 -11.347656 7.6875 -11.484375 C 7.582031 -11.628906 7.460938 -11.671875 7.328125 -11.609375 C 7.191406 -11.554688 6.691406 -11.222656 5.828125 -10.609375 C 4.972656 -9.992188 3.804688 -9.128906 2.328125 -8.015625 C 1.640625 -7.503906 0.96875 -6.972656 0.3125 -6.421875 C 0.132812 -6.253906 -0.0546875 -6.097656 -0.265625 -5.953125 C -0.742188 -5.546875 -1.273438 -5.328125 -1.859375 -5.296875 C -2.273438 -5.265625 -2.582031 -5.359375 -2.78125 -5.578125 C -2.988281 -5.796875 -3.023438 -6.09375 -2.890625 -6.46875 C -2.796875 -6.75 -2.675781 -7.007812 -2.53125 -7.25 C -2.457031 -7.351562 -2.40625 -7.460938 -2.375 -7.578125 C -1.132812 -10.078125 0.0859375 -12.582031 1.296875 -15.09375 C 1.328125 -15.15625 1.359375 -15.242188 1.390625 -15.359375 C 1.523438 -15.617188 1.664062 -15.875 1.8125 -16.125 C 2.1875 -16.53125 2.628906 -16.664062 3.140625 -16.53125 C 3.734375 -16.351562 3.960938 -16.007812 3.828125 -15.5 C 3.546875 -14.71875 3.269531 -13.941406 3 -13.171875 C 2.863281 -12.828125 2.722656 -12.484375 2.578125 -12.140625 C 2.347656 -11.535156 2.273438 -11.144531 2.359375 -10.96875 C 2.441406 -10.800781 2.828125 -10.921875 3.515625 -11.328125 C 3.984375 -11.640625 4.445312 -11.953125 4.90625 -12.265625 C 5.445312 -12.640625 5.976562 -12.984375 6.5 -13.296875 C 7.289062 -13.773438 8.101562 -14.1875 8.9375 -14.53125 C 9.34375 -14.707031 9.757812 -14.835938 10.1875 -14.921875 C 10.613281 -15.003906 11.015625 -14.90625 11.390625 -14.625 C 11.671875 -14.394531 11.789062 -14.128906 11.75 -13.828125 C 11.71875 -13.535156 11.640625 -13.253906 11.515625 -12.984375 C 11.296875 -12.472656 11.203125 -12.144531 11.234375 -12 C 11.273438 -11.863281 11.394531 -11.835938 11.59375 -11.921875 C 11.800781 -12.003906 12.160156 -12.203125 12.671875 -12.515625 C 13.191406 -12.828125 13.75 -13.171875 14.34375 -13.546875 C 15.09375 -14.035156 15.882812 -14.5 16.71875 -14.9375 C 17.40625 -15.382812 18.140625 -15.65625 18.921875 -15.75 C 19.992188 -15.832031 20.429688 -15.398438 20.234375 -14.453125 C 20.046875 -13.503906 19.671875 -12.378906 19.109375 -11.078125 C 18.546875 -9.773438 18.484375 -8.972656 18.921875 -8.671875 C 19.367188 -8.378906 20.359375 -8.78125 21.890625 -9.875 C 23.421875 -10.976562 24.289062 -11.601562 24.5 -11.75 Z M 24.5 -11.75 "/></g></g><g transform="translate(469.026924, 636.925356)"><g><path d="M 13.359375 -9 C 12.453125 -8.113281 11.394531 -7.351562 10.1875 -6.71875 C 8.988281 -6.082031 7.984375 -5.664062 7.171875 -5.46875 C 6.359375 -5.28125 5.523438 -5.171875 4.671875 -5.140625 C 3.296875 -5.078125 2.03125 -5.265625 0.875 -5.703125 C -1.019531 -6.460938 -1.679688 -7.921875 -1.109375 -10.078125 C -0.554688 -11.941406 0.550781 -13.394531 2.21875 -14.4375 C 3.894531 -15.488281 5.625 -16 7.40625 -15.96875 C 7.40625 -15.96875 7.421875 -15.96875 7.453125 -15.96875 C 7.910156 -16 8.34375 -15.96875 8.75 -15.875 C 9.4375 -15.625 9.875 -15.21875 10.0625 -14.65625 C 10.25 -14.09375 10.125 -13.46875 9.6875 -12.78125 C 8.6875 -11.257812 7.328125 -10.414062 5.609375 -10.25 C 4.460938 -10.132812 3.359375 -10.1875 2.296875 -10.40625 C 2.097656 -10.4375 1.921875 -10.378906 1.765625 -10.234375 C 1.609375 -10.097656 1.515625 -9.929688 1.484375 -9.734375 C 1.171875 -8.390625 1.582031 -7.53125 2.71875 -7.15625 C 4.125 -6.664062 5.585938 -6.664062 7.109375 -7.15625 C 8.859375 -7.695312 10.519531 -8.722656 12.09375 -10.234375 C 13.675781 -11.753906 14.585938 -12.460938 14.828125 -12.359375 C 15.066406 -12.265625 15.140625 -11.972656 15.046875 -11.484375 C 14.828125 -10.722656 14.265625 -9.894531 13.359375 -9 Z M 3.375 -12.78125 C 3.28125 -12.664062 3.210938 -12.539062 3.171875 -12.40625 C 3.140625 -12.28125 3.191406 -12.160156 3.328125 -12.046875 C 3.878906 -11.734375 4.472656 -11.617188 5.109375 -11.703125 C 5.753906 -11.796875 6.296875 -12.039062 6.734375 -12.4375 C 7.179688 -12.832031 7.375 -13.320312 7.3125 -13.90625 C 7.269531 -14.101562 7.160156 -14.226562 6.984375 -14.28125 C 6.816406 -14.34375 6.644531 -14.359375 6.46875 -14.328125 C 5.3125 -14.117188 4.28125 -13.601562 3.375 -12.78125 Z M 3.375 -12.78125 "/></g></g><g transform="translate(482.667548, 636.925356)"><g><path d="M 18.5625 -11.703125 C 18.8125 -11.390625 18.5 -10.816406 17.625 -9.984375 C 16.75 -9.160156 15.816406 -8.46875 14.828125 -7.90625 C 13.847656 -7.34375 12.710938 -6.78125 11.421875 -6.21875 C 10.554688 -5.84375 9.640625 -5.71875 8.671875 -5.84375 C 7.703125 -5.96875 7.21875 -6.550781 7.21875 -7.59375 C 7.21875 -8.644531 7.460938 -9.6875 7.953125 -10.71875 C 8.429688 -11.78125 8.535156 -12.328125 8.265625 -12.359375 C 7.992188 -12.390625 7.425781 -12.128906 6.5625 -11.578125 C 4.332031 -10.109375 2.253906 -8.429688 0.328125 -6.546875 C -0.191406 -5.921875 -0.847656 -5.578125 -1.640625 -5.515625 C -2.046875 -5.515625 -2.363281 -5.640625 -2.59375 -5.890625 C -2.820312 -6.148438 -2.847656 -6.429688 -2.671875 -6.734375 C -1.296875 -9.273438 0.09375 -11.789062 1.5 -14.28125 C 1.8125 -14.789062 2.28125 -15.109375 2.90625 -15.234375 C 3.175781 -15.285156 3.421875 -15.203125 3.640625 -14.984375 C 3.867188 -14.773438 3.984375 -14.539062 3.984375 -14.28125 C 3.953125 -14.03125 3.851562 -13.734375 3.6875 -13.390625 C 3.601562 -13.179688 3.523438 -12.984375 3.453125 -12.796875 C 3.390625 -12.609375 3.367188 -12.453125 3.390625 -12.328125 C 3.410156 -12.203125 3.507812 -12.164062 3.6875 -12.21875 C 3.914062 -12.34375 4.148438 -12.472656 4.390625 -12.609375 C 4.984375 -12.953125 5.550781 -13.28125 6.09375 -13.59375 C 6.582031 -13.875 7.09375 -14.125 7.625 -14.34375 C 8.15625 -14.5625 8.707031 -14.710938 9.28125 -14.796875 C 10.21875 -14.859375 10.878906 -14.644531 11.265625 -14.15625 C 11.660156 -13.675781 11.710938 -13.003906 11.421875 -12.140625 C 11.109375 -11.359375 10.78125 -10.585938 10.4375 -9.828125 C 10.007812 -9.109375 9.9375 -8.5625 10.21875 -8.1875 C 10.5 -7.8125 11.804688 -8.238281 14.140625 -9.46875 L 15.890625 -10.5 C 17.546875 -11.5625 18.4375 -11.960938 18.5625 -11.703125 Z M 18.5625 -11.703125 "/></g></g></g></svg>