<svg xmlns="http://www.w3.org/2000/svg" xmlns:xlink="http://www.w3.org/1999/xlink" width="1080" zoomAndPan="magnify" viewBox="0 0 810 809.999993" height="1080" preserveAspectRatio="xMidYMid meet" version="1.0"><defs><g/><clipPath id="93f49b764e"><path d="M 182 0 L 539 0 L 539 783.601562 L 182 783.601562 Z M 182 0 " clip-rule="nonzero"/></clipPath><clipPath id="35fc608f1d"><rect x="0" width="357" y="0" height="784"/></clipPath><clipPath id="64ecc260ce"><path d="M 0.441406 153 L 645.558594 153 L 645.558594 532 L 0.441406 532 Z M 0.441406 153 " clip-rule="nonzero"/></clipPath><clipPath id="593b13ed1c"><rect x="0" width="646" y="0" height="379"/></clipPath><clipPath id="400df35b29"><rect x="0" width="488" y="0" height="510"/></clipPath><clipPath id="613760a954"><rect x="0" width="234" y="0" height="65"/></clipPath><clipPath id="ce22a52ff9"><rect x="0" width="60" y="0" height="75"/></clipPath><clipPath id="2547d985fe"><rect x="0" width="646" y="0" height="784"/></clipPath></defs><g transform="matrix(1, 0, 0, 1, 43, 0.000000000000039746)"><g clip-path="url(#2547d985fe)"><g clip-path="url(#93f49b764e)"><g transform="matrix(1, 0, 0, 1, 182, 0.000000000000039746)"><g clip-path="url(#35fc608f1d)"><g fill="#f1dc5e" fill-opacity="1"><g transform="translate(0.678221, 605.204597)"><g><path d="M 222.015625 -88.8125 L 222.015625 0 L 133.203125 0 L 133.203125 -88.8125 Z M 44.40625 -88.8125 L 44.40625 -444.03125 L 133.203125 -444.03125 L 133.203125 -88.8125 Z M 222.015625 -88.8125 L 222.015625 -444.03125 L 310.8125 -444.03125 L 310.8125 -88.8125 Z M 222.015625 -88.8125 "/></g></g></g></g></g></g><g clip-path="url(#64ecc260ce)"><g transform="matrix(1, 0, 0, 1, 0, 153)"><g clip-path="url(#593b13ed1c)"><g fill="#f1dc5e" fill-opacity="1"><g transform="translate(1.205342, 296.948959)"><g/></g></g><g fill="#f1dc5e" fill-opacity="1"><g transform="translate(73.148847, 296.948959)"><g><path d="M 46.25 0 L 23.796875 0 L 23.796875 -210.390625 L 46.25 -210.390625 Z M 46.25 0 "/></g></g></g><g fill="#f1dc5e" fill-opacity="1"><g transform="translate(143.196856, 296.948959)"><g/></g></g><g fill="#f1dc5e" fill-opacity="1"><g transform="translate(215.133458, 296.948959)"><g/></g></g><g fill="#f1dc5e" fill-opacity="1"><g transform="translate(287.07006, 296.948959)"><g/></g></g><g fill="#f1dc5e" fill-opacity="1"><g transform="translate(359.006662, 296.948959)"><g/></g></g><g fill="#f1dc5e" fill-opacity="1"><g transform="translate(430.943264, 296.948959)"><g/></g></g><g fill="#f1dc5e" fill-opacity="1"><g transform="translate(502.879866, 296.948959)"><g/></g></g><g fill="#f1dc5e" fill-opacity="1"><g transform="translate(574.829382, 296.948959)"><g><path d="M 46.25 0 L 23.796875 0 L 23.796875 -210.390625 L 46.25 -210.390625 Z M 46.25 0 "/></g></g></g></g></g></g><g transform="matrix(1, 0, 0, 1, 113, 89)"><g clip-path="url(#400df35b29)"><g fill="#f1dc5e" fill-opacity="1"><g transform="translate(5.355227, 395.838107)"><g><path d="M 62.640625 0 L 32.234375 0 L 32.234375 -285.015625 L 62.640625 -285.015625 Z M 62.640625 0 "/></g></g></g><g fill="#f1dc5e" fill-opacity="1"><g transform="translate(100.299837, 395.838107)"><g/></g></g><g fill="#f1dc5e" fill-opacity="1"><g transform="translate(197.745312, 395.838107)"><g/></g></g><g fill="#f1dc5e" fill-opacity="1"><g transform="translate(295.190786, 395.838107)"><g/></g></g><g fill="#f1dc5e" fill-opacity="1"><g transform="translate(392.658218, 395.838107)"><g><path d="M 62.640625 0 L 32.234375 0 L 32.234375 -285.015625 L 62.640625 -285.015625 Z M 62.640625 0 "/></g></g></g></g></g><g fill="#f1dc5e" fill-opacity="1"><g transform="translate(578.388154, 195.039299)"><g><path d="M 26.171875 -54.984375 L 39.796875 -54.984375 L 39.796875 -34.3125 L 60.46875 -34.3125 L 60.46875 -20.671875 L 39.796875 -20.671875 L 39.796875 0 L 26.171875 0 L 26.171875 -20.671875 L 5.5 -20.671875 L 5.5 -34.3125 L 26.171875 -34.3125 Z M 26.171875 -54.984375 "/></g></g></g><g transform="matrix(1, 0, 0, 1, 243, 92)"><g clip-path="url(#613760a954)"><g fill="#ffffff" fill-opacity="1"><g transform="translate(1.873257, 51.517132)"><g><path d="M 25.78125 0 L 1.96875 0 L 1.96875 -43.6875 L 13.90625 -43.6875 L 13.90625 -11.9375 L 25.78125 -11.9375 Z M 25.78125 0 "/></g></g></g><g fill="#ffffff" fill-opacity="1"><g transform="translate(29.620671, 51.517132)"><g><path d="M 29.78125 0 L 1.96875 0 L 1.96875 -43.6875 L 29.78125 -43.6875 L 29.78125 -31.75 L 13.90625 -31.75 L 13.90625 -27.8125 L 25.78125 -27.8125 L 25.78125 -15.875 L 13.90625 -15.875 L 13.90625 -11.9375 L 29.78125 -11.9375 Z M 29.78125 0 "/></g></g></g><g fill="#ffffff" fill-opacity="1"><g transform="translate(61.368285, 51.517132)"><g><path d="M 29.78125 -21.84375 L 21.84375 0 L 9.90625 0 L 1.96875 -21.84375 L 1.96875 -43.6875 L 13.90625 -43.6875 L 13.90625 -21.84375 L 15.875 -16.515625 L 17.84375 -21.84375 L 17.84375 -43.6875 L 29.78125 -43.6875 Z M 29.78125 -21.84375 "/></g></g></g><g fill="#ffffff" fill-opacity="1"><g transform="translate(93.1159, 51.517132)"><g><path d="M 29.78125 0 L 1.96875 0 L 1.96875 -43.6875 L 29.78125 -43.6875 L 29.78125 -31.75 L 13.90625 -31.75 L 13.90625 -27.8125 L 25.78125 -27.8125 L 25.78125 -15.875 L 13.90625 -15.875 L 13.90625 -11.9375 L 29.78125 -11.9375 Z M 29.78125 0 "/></g></g></g><g fill="#ffffff" fill-opacity="1"><g transform="translate(124.863515, 51.517132)"><g><path d="M 25.78125 0 L 1.96875 0 L 1.96875 -43.6875 L 13.90625 -43.6875 L 13.90625 -11.9375 L 25.78125 -11.9375 Z M 25.78125 0 "/></g></g></g><g fill="#ffffff" fill-opacity="1"><g transform="translate(152.610928, 51.517132)"><g/></g></g><g fill="#ffffff" fill-opacity="1"><g transform="translate(169.24668, 51.517132)"><g><path d="M 29.78125 -5.96875 C 29.78125 -4.363281 29.1875 -2.96875 28 -1.78125 C 26.8125 -0.59375 25.414062 0 23.8125 0 L 7.9375 0 C 6.332031 0 4.9375 -0.59375 3.75 -1.78125 C 2.5625 -2.96875 1.96875 -4.363281 1.96875 -5.96875 L 1.96875 -43.6875 L 13.90625 -43.6875 L 13.90625 -11.9375 L 17.84375 -11.9375 L 17.84375 -43.6875 L 29.78125 -43.6875 Z M 29.78125 -5.96875 "/></g></g></g><g fill="#ffffff" fill-opacity="1"><g transform="translate(200.994295, 51.517132)"><g><path d="M 17.84375 -23.8125 L 17.84375 -31.75 L 13.90625 -31.75 L 13.90625 -23.8125 Z M 29.78125 -17.84375 C 29.78125 -16.238281 29.1875 -14.851562 28 -13.6875 C 26.8125 -12.519531 25.414062 -11.9375 23.8125 -11.9375 L 13.90625 -11.9375 L 13.90625 0 L 1.96875 0 L 1.96875 -43.6875 L 23.8125 -43.6875 C 25.414062 -43.6875 26.8125 -43.09375 28 -41.90625 C 29.1875 -40.71875 29.78125 -39.320312 29.78125 -37.71875 Z M 29.78125 -17.84375 "/></g></g></g></g></g><g fill="#ff66c4" fill-opacity="1"><g transform="translate(210.025902, 638.306224)"><g><path d="M 164.734375 -90.5625 C 165.523438 -90.09375 166.03125 -89.460938 166.25 -88.671875 C 166.46875 -87.890625 166.335938 -87.101562 165.859375 -86.3125 C 165.148438 -85.175781 164.28125 -84.132812 163.25 -83.1875 C 161.164062 -81.257812 158.867188 -79.507812 156.359375 -77.9375 C 143.703125 -69.664062 130.070312 -63.382812 115.46875 -59.09375 C 114.800781 -58.894531 114.132812 -58.675781 113.46875 -58.4375 C 112.488281 -58.125 111.484375 -57.828125 110.453125 -57.546875 C 110.171875 -57.429688 109.910156 -57.457031 109.671875 -57.625 C 109.429688 -57.800781 109.28125 -58.050781 109.21875 -58.375 C 109.21875 -58.53125 109.273438 -58.707031 109.390625 -58.90625 C 109.515625 -59.113281 109.648438 -59.25 109.796875 -59.3125 C 111.023438 -59.832031 112.304688 -60.304688 113.640625 -60.734375 C 128.285156 -65.585938 142.007812 -72.34375 154.8125 -81 C 156.375 -82.132812 157.890625 -83.316406 159.359375 -84.546875 C 159.546875 -84.734375 159.757812 -84.894531 160 -85.03125 C 160.75 -85.644531 161.285156 -86.425781 161.609375 -87.375 C 161.804688 -87.9375 161.644531 -88.410156 161.125 -88.796875 C 160.539062 -89.160156 159.894531 -89.375 159.1875 -89.4375 C 159.0625 -89.4375 158.925781 -89.457031 158.78125 -89.5 C 155.988281 -89.976562 153.1875 -90.21875 150.375 -90.21875 C 147.570312 -90.21875 144.773438 -90.097656 141.984375 -89.859375 C 135.648438 -89.234375 129.34375 -88.378906 123.0625 -87.296875 C 116.78125 -86.210938 110.515625 -85.003906 104.265625 -83.671875 C 85.742188 -79.765625 67.523438 -74.800781 49.609375 -68.78125 C 43.234375 -66.65625 36.914062 -64.390625 30.65625 -61.984375 C 24.394531 -59.578125 18.210938 -56.9375 12.109375 -54.0625 C 10.460938 -53.25 8.8125 -52.441406 7.15625 -51.640625 C 6.269531 -51.171875 5.351562 -50.703125 4.40625 -50.234375 C 4.257812 -50.191406 4.144531 -50.113281 4.0625 -50 C 3.4375 -49.675781 2.789062 -49.421875 2.125 -49.234375 C 1.800781 -49.097656 1.460938 -49.039062 1.109375 -49.0625 C 0.753906 -49.09375 0.484375 -49.242188 0.296875 -49.515625 C 0.0976562 -49.898438 0.09375 -50.234375 0.28125 -50.515625 C 0.476562 -50.796875 0.738281 -51.035156 1.0625 -51.234375 C 1.101562 -51.273438 1.175781 -51.316406 1.28125 -51.359375 C 2.832031 -52.253906 4.4375 -53.132812 6.09375 -54 C 11.394531 -56.6875 16.796875 -59.160156 22.296875 -61.421875 C 27.796875 -63.691406 33.359375 -65.828125 38.984375 -67.828125 C 61.617188 -75.898438 84.707031 -82.296875 108.25 -87.015625 C 113.925781 -88.160156 119.597656 -89.203125 125.265625 -90.140625 C 130.929688 -91.085938 136.644531 -91.800781 142.40625 -92.28125 C 144.0625 -92.363281 145.738281 -92.445312 147.4375 -92.53125 C 148.1875 -92.59375 148.96875 -92.644531 149.78125 -92.6875 C 153.332031 -92.6875 156.878906 -92.429688 160.421875 -91.921875 C 161.921875 -91.722656 163.359375 -91.269531 164.734375 -90.5625 Z M 77.125 -24.578125 C 77.445312 -24.515625 77.753906 -24.398438 78.046875 -24.234375 C 78.335938 -24.078125 78.550781 -23.898438 78.6875 -23.703125 C 78.832031 -23.515625 78.851562 -23.335938 78.75 -23.171875 C 78.507812 -22.867188 78.238281 -22.691406 77.9375 -22.640625 C 77.632812 -22.597656 77.34375 -22.578125 77.0625 -22.578125 C 77 -22.578125 76.945312 -22.578125 76.90625 -22.578125 C 71.851562 -22.578125 66.773438 -22.34375 61.671875 -21.875 C 58.984375 -21.632812 56.265625 -21.441406 53.515625 -21.296875 C 52.609375 -21.253906 51.992188 -20.78125 51.671875 -19.875 C 51.398438 -19.164062 51.09375 -18.457031 50.75 -17.75 C 50.570312 -17.34375 50.410156 -16.925781 50.265625 -16.5 C 49.597656 -14.96875 48.960938 -13.472656 48.359375 -12.015625 C 43.160156 0.628906 37.75 13.191406 32.125 25.671875 C 30.507812 29.128906 28.800781 32.535156 27 35.890625 C 27 35.929688 26.976562 35.972656 26.9375 36.015625 C 26.375 37.109375 25.664062 38.148438 24.8125 39.140625 C 24.0625 40.046875 23.070312 40.359375 21.84375 40.078125 C 21.5 39.972656 21.207031 39.800781 20.96875 39.5625 C 20.738281 39.320312 20.625 39.019531 20.625 38.65625 C 20.6875 37.84375 20.835938 37.039062 21.078125 36.25 C 21.242188 35.6875 21.425781 35.09375 21.625 34.46875 C 22.5625 31.394531 23.554688 28.328125 24.609375 25.265625 C 29.335938 11.703125 34.835938 -1.53125 41.109375 -14.4375 C 41.691406 -15.65625 42.378906 -16.859375 43.171875 -18.046875 C 43.367188 -18.328125 43.644531 -18.492188 44 -18.546875 C 44.351562 -18.597656 44.691406 -18.570312 45.015625 -18.46875 C 45.585938 -18.289062 45.796875 -17.847656 45.640625 -17.140625 C 45.492188 -16.429688 45.203125 -15.613281 44.765625 -14.6875 C 44.328125 -13.769531 43.894531 -12.957031 43.46875 -12.25 C 43.125 -11.664062 42.882812 -11.234375 42.75 -10.953125 C 36.269531 2.984375 32.648438 11.113281 31.890625 13.4375 C 31.617188 14.226562 31.484375 14.765625 31.484375 15.046875 C 31.484375 15.328125 31.578125 15.445312 31.765625 15.40625 C 31.960938 15.363281 32.175781 15.234375 32.40625 15.015625 C 32.644531 14.796875 32.863281 14.566406 33.0625 14.328125 C 33.269531 14.097656 33.40625 13.941406 33.46875 13.859375 C 33.75 13.148438 34.050781 12.414062 34.375 11.65625 C 35.425781 9.226562 36.46875 6.8125 37.5 4.40625 C 37.820312 3.695312 38.132812 2.988281 38.4375 2.28125 C 40.644531 -2.957031 42.835938 -8.195312 45.015625 -13.4375 C 45.117188 -13.625 45.253906 -13.914062 45.421875 -14.3125 C 45.816406 -15.0625 46.226562 -15.941406 46.65625 -16.953125 C 47.082031 -17.960938 47.351562 -18.867188 47.46875 -19.671875 C 47.59375 -20.472656 47.382812 -20.894531 46.84375 -20.9375 C 45.769531 -20.9375 44.6875 -20.9375 43.59375 -20.9375 C 42.882812 -20.9375 42.175781 -20.9375 41.46875 -20.9375 C 40.863281 -20.9375 40.226562 -20.9375 39.5625 -20.9375 C 37.476562 -20.9375 35.394531 -20.96875 33.3125 -21.03125 C 32.757812 -21.082031 32.242188 -21.222656 31.765625 -21.453125 C 31.722656 -21.492188 31.6875 -21.570312 31.65625 -21.6875 C 31.625 -21.8125 31.585938 -21.953125 31.546875 -22.109375 C 31.546875 -22.148438 31.546875 -22.191406 31.546875 -22.234375 C 31.546875 -22.273438 31.570312 -22.320312 31.625 -22.375 C 31.675781 -22.425781 31.722656 -22.472656 31.765625 -22.515625 C 32.046875 -22.710938 32.328125 -22.832031 32.609375 -22.875 C 32.890625 -22.914062 33.175781 -22.9375 33.46875 -22.9375 C 33.5625 -22.9375 33.648438 -22.9375 33.734375 -22.9375 C 34.910156 -22.976562 36.09375 -23.019531 37.28125 -23.0625 C 40.351562 -23.257812 43.421875 -23.378906 46.484375 -23.421875 C 47.546875 -23.421875 48.367188 -23.644531 48.953125 -24.09375 C 49.546875 -24.550781 50.003906 -25.25 50.328125 -26.1875 C 51.847656 -30.125 53.382812 -34.046875 54.9375 -37.953125 C 56.59375 -42.117188 58.222656 -46.285156 59.828125 -50.453125 C 61.054688 -53.648438 62.21875 -56.863281 63.3125 -60.09375 C 63.914062 -61.789062 64.523438 -63.507812 65.140625 -65.25 C 65.140625 -65.3125 65.164062 -65.363281 65.21875 -65.40625 C 65.445312 -66.15625 65.753906 -66.84375 66.140625 -67.46875 C 66.378906 -67.789062 66.664062 -67.960938 67 -67.984375 C 67.332031 -68.003906 67.679688 -67.972656 68.046875 -67.890625 C 68.328125 -67.734375 68.550781 -67.546875 68.71875 -67.328125 C 68.894531 -67.117188 68.960938 -66.875 68.921875 -66.59375 C 68.765625 -65.519531 68.546875 -64.457031 68.265625 -63.40625 C 66.703125 -58.25 64.929688 -53.191406 62.953125 -48.234375 C 62.847656 -48.097656 62.773438 -47.957031 62.734375 -47.8125 C 60.953125 -43.132812 59.113281 -38.484375 57.21875 -33.859375 C 56.363281 -31.734375 55.503906 -29.609375 54.640625 -27.484375 C 54.640625 -27.441406 54.640625 -27.421875 54.640625 -27.421875 C 54.398438 -26.796875 54.164062 -26.148438 53.9375 -25.484375 C 53.695312 -24.878906 53.679688 -24.441406 53.890625 -24.171875 C 54.109375 -23.910156 54.570312 -23.78125 55.28125 -23.78125 C 56.226562 -23.78125 57.175781 -23.832031 58.125 -23.9375 C 58.550781 -23.9375 58.976562 -23.9375 59.40625 -23.9375 C 59.5 -23.9375 59.566406 -23.957031 59.609375 -24 C 65.035156 -24.195312 70.445312 -24.390625 75.84375 -24.578125 C 76.269531 -24.617188 76.695312 -24.617188 77.125 -24.578125 Z M 77.125 -24.578125 "/></g></g><g transform="translate(289.985623, 638.306224)"><g><path d="M 5.125 -7.640625 L 5.03125 -7.640625 C 1.914062 -7.679688 -0.132812 -8.375 -1.125 -9.71875 C -2.113281 -11.0625 -2.070312 -12.847656 -1 -15.078125 C -0.09375 -16.773438 1.046875 -18.257812 2.421875 -19.53125 C 2.890625 -19.957031 3.367188 -20.296875 3.859375 -20.546875 C 4.359375 -20.804688 4.921875 -20.9375 5.546875 -20.9375 C 5.910156 -21 6.328125 -20.9375 6.796875 -20.75 C 6.953125 -20.707031 7.101562 -20.65625 7.25 -20.59375 C 7.613281 -20.65625 7.96875 -20.769531 8.3125 -20.9375 C 8.394531 -21 8.515625 -21.054688 8.671875 -21.109375 C 9.378906 -21.378906 10.128906 -21.492188 10.921875 -21.453125 C 11.242188 -21.453125 11.578125 -21.453125 11.921875 -21.453125 C 13.191406 -21.265625 14.144531 -20.734375 14.78125 -19.859375 C 15.425781 -18.992188 15.65625 -17.9375 15.46875 -16.6875 C 15.351562 -15.9375 15.113281 -15.226562 14.75 -14.5625 C 12.28125 -10.132812 9.132812 -7.828125 5.3125 -7.640625 Z M 10.21875 -19.171875 C 8.519531 -19.234375 7.007812 -18.742188 5.6875 -17.703125 C 4.363281 -16.660156 3.378906 -15.460938 2.734375 -14.109375 C 2.085938 -12.753906 1.910156 -11.640625 2.203125 -10.765625 C 2.492188 -9.898438 3.390625 -9.660156 4.890625 -10.046875 C 6.585938 -10.566406 8.085938 -11.535156 9.390625 -12.953125 C 10.691406 -14.367188 11.488281 -15.710938 11.78125 -16.984375 C 12.070312 -18.265625 11.550781 -18.992188 10.21875 -19.171875 Z M 10.21875 -19.171875 "/></g></g><g transform="translate(307.092235, 638.306224)"><g><path d="M 15.453125 -19.78125 C 15.265625 -18.300781 14.566406 -17.332031 13.359375 -16.875 C 12.160156 -16.425781 11.769531 -17.019531 12.1875 -18.65625 C 12.613281 -20.289062 11.878906 -20.703125 9.984375 -19.890625 C 8.097656 -19.085938 6.539062 -18.070312 5.3125 -16.84375 C 3.425781 -14.914062 1.753906 -12.832031 0.296875 -10.59375 C 0.140625 -10.40625 0.0195312 -10.242188 -0.0625 -10.109375 C -0.488281 -9.492188 -0.921875 -8.90625 -1.359375 -8.34375 C -1.628906 -7.957031 -1.953125 -7.710938 -2.328125 -7.609375 C -2.710938 -7.515625 -3.097656 -7.503906 -3.484375 -7.578125 C -3.847656 -7.617188 -4.125 -7.753906 -4.3125 -7.984375 C -4.507812 -8.222656 -4.53125 -8.503906 -4.375 -8.828125 C -4.144531 -9.410156 -3.867188 -10 -3.546875 -10.59375 C -1.609375 -14.1875 0.359375 -17.785156 2.359375 -21.390625 C 2.398438 -21.429688 2.421875 -21.472656 2.421875 -21.515625 C 2.691406 -22.078125 3.023438 -22.59375 3.421875 -23.0625 C 3.847656 -23.539062 4.335938 -23.734375 4.890625 -23.640625 C 5.453125 -23.554688 5.832031 -23.226562 6.03125 -22.65625 C 6.257812 -21.894531 6.457031 -21.46875 6.625 -21.375 C 6.800781 -21.28125 7.191406 -21.351562 7.796875 -21.59375 C 9.085938 -22.0625 10.34375 -22.390625 11.5625 -22.578125 C 12.789062 -22.773438 13.796875 -22.726562 14.578125 -22.4375 C 15.359375 -22.144531 15.648438 -21.257812 15.453125 -19.78125 Z M 15.453125 -19.78125 "/></g></g><g transform="translate(323.200157, 638.306224)"><g/></g><g transform="translate(347.555334, 638.306224)"><g><path d="M 127.59375 12.796875 C 127.632812 12.796875 127.707031 12.796875 127.8125 12.796875 C 128.132812 12.835938 128.453125 12.90625 128.765625 13 C 129.078125 13.09375 129.347656 13.28125 129.578125 13.5625 C 129.671875 13.644531 129.742188 13.757812 129.796875 13.90625 C 129.847656 14.0625 129.84375 14.207031 129.78125 14.34375 C 129.738281 14.488281 129.65625 14.617188 129.53125 14.734375 C 129.414062 14.859375 129.316406 14.921875 129.234375 14.921875 C 128.648438 15.003906 128.054688 15.003906 127.453125 14.921875 C 113.046875 11.929688 97.070312 10 79.53125 9.125 C 61.988281 8.257812 45.8125 8.578125 31 10.078125 C 30.332031 10.128906 29.6875 10.207031 29.0625 10.3125 C 28.5 10.351562 27.960938 10.394531 27.453125 10.4375 C 25.796875 10.675781 24.378906 11.40625 23.203125 12.625 C 20.535156 15.53125 17.601562 18.085938 14.40625 20.296875 C 11.882812 21.992188 9.113281 22.941406 6.09375 23.140625 C 4.863281 23.222656 3.679688 23.023438 2.546875 22.546875 C 1.472656 22.078125 0.78125 21.367188 0.46875 20.421875 C 0.15625 19.484375 0.289062 18.472656 0.875 17.390625 C 1.8125 15.867188 3.363281 14.566406 5.53125 13.484375 C 7.707031 12.398438 10.023438 11.515625 12.484375 10.828125 C 14.941406 10.140625 17.019531 9.632812 18.71875 9.3125 C 21 8.882812 22.847656 7.78125 24.265625 6 C 31.109375 -2.34375 37.691406 -11.78125 44.015625 -22.3125 C 50.347656 -32.84375 56.179688 -43.679688 61.515625 -54.828125 C 66.859375 -65.984375 71.453125 -76.660156 75.296875 -86.859375 C 75.421875 -87.398438 75.640625 -87.867188 75.953125 -88.265625 C 76.265625 -88.660156 76.722656 -88.929688 77.328125 -89.078125 C 77.910156 -89.171875 78.410156 -89.0625 78.828125 -88.75 C 79.242188 -88.4375 79.410156 -88 79.328125 -87.4375 C 79.128906 -86.101562 78.796875 -84.804688 78.328125 -83.546875 C 74.648438 -73.859375 70.289062 -63.765625 65.25 -53.265625 C 60.21875 -42.773438 54.738281 -32.546875 48.8125 -22.578125 C 42.882812 -12.617188 36.773438 -3.597656 30.484375 4.484375 C 29.171875 6.128906 28.769531 7.085938 29.28125 7.359375 C 29.800781 7.628906 30.8125 7.613281 32.3125 7.3125 C 32.65625 7.269531 32.988281 7.226562 33.3125 7.1875 C 45.125 5.851562 57.378906 5.445312 70.078125 5.96875 C 82.773438 6.5 95.285156 7.613281 107.609375 9.3125 C 111.953125 9.9375 116.207031 10.644531 120.375 11.4375 C 122.820312 11.90625 125.226562 12.359375 127.59375 12.796875 Z M 7.859375 20.078125 C 11.472656 18.609375 14.457031 16.296875 16.8125 13.140625 C 12.925781 13.421875 9.46875 14.625 6.4375 16.75 C 5.5 17.457031 4.945312 18.144531 4.78125 18.8125 C 4.625 19.476562 4.816406 19.960938 5.359375 20.265625 C 5.910156 20.566406 6.742188 20.503906 7.859375 20.078125 Z M 7.859375 20.078125 "/></g></g><g transform="translate(407.186859, 638.306224)"><g><path d="M 23.375 -16.40625 C 23.875 -16.125 23.910156 -15.425781 23.484375 -14.3125 C 22.859375 -13.488281 22.191406 -12.722656 21.484375 -12.015625 C 20.773438 -11.304688 20.003906 -10.671875 19.171875 -10.109375 C 19.109375 -10.109375 19.078125 -10.085938 19.078125 -10.046875 C 18.515625 -9.660156 17.921875 -9.328125 17.296875 -9.046875 C 12.160156 -7.203125 9.539062 -8.289062 9.4375 -12.3125 C 7.351562 -10.5 5.957031 -9.390625 5.25 -8.984375 C 3.550781 -7.972656 1.71875 -7.523438 -0.25 -7.640625 C -1.71875 -7.722656 -2.710938 -8.164062 -3.234375 -8.96875 C -3.765625 -9.78125 -3.71875 -10.875 -3.09375 -12.25 C -2.144531 -14.414062 -0.800781 -16.347656 0.9375 -18.046875 C 2.976562 -19.929688 5.242188 -21.441406 7.734375 -22.578125 C 9.066406 -23.242188 10.460938 -23.503906 11.921875 -23.359375 C 13.378906 -23.273438 14.257812 -22.445312 14.5625 -20.875 C 14.6875 -20.40625 14.566406 -19.988281 14.203125 -19.625 C 13.734375 -19.195312 13.1875 -19.097656 12.5625 -19.328125 C 12.519531 -19.328125 12.460938 -19.335938 12.390625 -19.359375 C 12.316406 -19.378906 12.257812 -19.410156 12.21875 -19.453125 C 11.59375 -20.316406 10.960938 -20.675781 10.328125 -20.53125 C 9.691406 -20.394531 9.019531 -20.113281 8.3125 -19.6875 C 5 -17.75 2.539062 -15.050781 0.9375 -11.59375 C 0.851562 -11.445312 0.796875 -11.28125 0.765625 -11.09375 C 0.742188 -10.914062 0.800781 -10.773438 0.9375 -10.671875 C 1.320312 -10.535156 1.75 -10.554688 2.21875 -10.734375 C 2.695312 -10.921875 3.171875 -11.191406 3.640625 -11.546875 C 4.109375 -11.898438 4.503906 -12.195312 4.828125 -12.4375 C 4.867188 -12.5 4.890625 -12.53125 4.890625 -12.53125 C 6.460938 -13.84375 8 -15.1875 9.5 -16.5625 C 10.164062 -17.269531 10.992188 -17.664062 11.984375 -17.75 C 13.398438 -17.75 13.988281 -17.117188 13.75 -15.859375 C 13.625 -15.378906 13.488281 -14.90625 13.34375 -14.4375 C 12.78125 -12.394531 12.753906 -11.195312 13.265625 -10.84375 C 13.785156 -10.488281 14.578125 -10.488281 15.640625 -10.84375 C 16.703125 -11.195312 17.765625 -11.875 18.828125 -12.875 C 19.890625 -13.875 20.785156 -14.785156 21.515625 -15.609375 C 22.253906 -16.429688 22.875 -16.695312 23.375 -16.40625 Z M 23.375 -16.40625 "/></g></g><g transform="translate(428.545962, 638.306224)"><g><path d="M 28.609375 -16.953125 C 29.054688 -16.835938 29.289062 -16.671875 29.3125 -16.453125 C 29.332031 -16.242188 29.34375 -16.140625 29.34375 -16.140625 C 28.832031 -15.234375 28.242188 -14.40625 27.578125 -13.65625 C 26.054688 -11.957031 24.285156 -10.601562 22.265625 -9.59375 C 21.273438 -9.039062 20.15625 -8.742188 18.90625 -8.703125 C 16.03125 -8.660156 14.710938 -10.054688 14.953125 -12.890625 C 15.054688 -13.492188 15.195312 -14.082031 15.375 -14.65625 C 15.476562 -14.9375 15.550781 -15.21875 15.59375 -15.5 C 15.875 -16.53125 15.953125 -17.101562 15.828125 -17.21875 C 15.710938 -17.332031 15.378906 -17.035156 14.828125 -16.328125 C 14.671875 -16.203125 14.53125 -16.066406 14.40625 -15.921875 C 13.539062 -14.890625 12.660156 -13.878906 11.765625 -12.890625 C 10.109375 -10.992188 8.21875 -9.40625 6.09375 -8.125 C 4.820312 -7.363281 3.476562 -6.960938 2.0625 -6.921875 C -0.257812 -6.816406 -1.5625 -7.878906 -1.84375 -10.109375 C -1.945312 -11.015625 -1.898438 -11.910156 -1.703125 -12.796875 C -0.765625 -16.441406 1.117188 -19.21875 3.953125 -21.125 C 6.796875 -23.039062 10.039062 -23.722656 13.6875 -23.171875 C 14.71875 -22.867188 15.472656 -23.144531 15.953125 -24 C 16.140625 -24.320312 16.332031 -24.65625 16.53125 -25 C 17.519531 -26.695312 18.484375 -28.394531 19.421875 -30.09375 C 21.210938 -33.351562 23.007812 -36.640625 24.8125 -39.953125 C 26.269531 -42.546875 27.726562 -45.164062 29.1875 -47.8125 C 29.613281 -48.625 30.085938 -49.410156 30.609375 -50.171875 C 30.847656 -50.535156 31.144531 -50.753906 31.5 -50.828125 C 31.851562 -50.898438 32.222656 -50.9375 32.609375 -50.9375 C 32.691406 -50.9375 32.785156 -50.9375 32.890625 -50.9375 C 33.328125 -50.9375 33.671875 -50.828125 33.921875 -50.609375 C 34.179688 -50.398438 34.238281 -50.113281 34.09375 -49.75 C 33.8125 -48.84375 33.476562 -47.984375 33.09375 -47.171875 C 31.113281 -43.210938 29.25 -39.207031 27.5 -35.15625 C 25.75 -31.113281 24.023438 -27.039062 22.328125 -22.9375 C 21.765625 -21.519531 21.195312 -20.101562 20.625 -18.6875 C 19.914062 -17.03125 19.320312 -15.332031 18.84375 -13.59375 C 18.71875 -13.207031 18.65625 -12.828125 18.65625 -12.453125 C 18.65625 -12.078125 18.835938 -11.75 19.203125 -11.46875 C 19.441406 -11.320312 19.6875 -11.296875 19.9375 -11.390625 C 20.195312 -11.484375 20.476562 -11.597656 20.78125 -11.734375 C 20.820312 -11.796875 20.882812 -11.847656 20.96875 -11.890625 C 23.007812 -13.066406 24.878906 -14.484375 26.578125 -16.140625 C 26.859375 -16.421875 27.15625 -16.65625 27.46875 -16.84375 C 27.78125 -17.039062 28.160156 -17.078125 28.609375 -16.953125 Z M 12.6875 -19.046875 C 12.925781 -19.429688 13 -19.800781 12.90625 -20.15625 C 12.8125 -20.507812 12.566406 -20.769531 12.171875 -20.9375 C 11.378906 -21.375 10.535156 -21.429688 9.640625 -21.109375 C 7.421875 -20.441406 5.566406 -19.171875 4.078125 -17.296875 C 2.585938 -15.429688 1.773438 -13.367188 1.640625 -11.109375 C 1.679688 -11.003906 1.703125 -10.929688 1.703125 -10.890625 C 1.703125 -10.691406 1.703125 -10.5 1.703125 -10.3125 C 1.898438 -9.28125 2.539062 -9.082031 3.625 -9.71875 C 4.707031 -10.351562 5.921875 -11.378906 7.265625 -12.796875 C 8.609375 -14.210938 9.8125 -15.554688 10.875 -16.828125 C 11.9375 -18.109375 12.539062 -18.847656 12.6875 -19.046875 Z M 12.6875 -19.046875 "/></g></g><g transform="translate(455.478407, 638.306224)"><g><path d="M 12.796875 -13.578125 C 11.648438 -12.210938 10.289062 -10.960938 8.71875 -9.828125 C 7.15625 -8.691406 5.382812 -7.921875 3.40625 -7.515625 C 1.4375 -7.117188 -0.09375 -7.265625 -1.1875 -7.953125 C -2.28125 -8.640625 -2.5 -10.164062 -1.84375 -12.53125 C -0.976562 -14.976562 0.203125 -17.3125 1.703125 -19.53125 C 2.046875 -20 2.539062 -20.332031 3.1875 -20.53125 C 3.664062 -20.632812 4.082031 -20.550781 4.4375 -20.28125 C 4.789062 -20.007812 4.921875 -19.671875 4.828125 -19.265625 C 4.503906 -18.492188 4.148438 -17.71875 3.765625 -16.9375 C 3.378906 -16.164062 3.125 -15.664062 3 -15.4375 C 2.25 -14.0625 1.722656 -12.617188 1.421875 -11.109375 C 1.421875 -10.253906 2.566406 -10.203125 4.859375 -10.953125 C 7.160156 -11.703125 9.394531 -13.082031 11.5625 -15.09375 C 13.738281 -17.101562 14.773438 -17.691406 14.671875 -16.859375 C 14.578125 -16.035156 13.953125 -14.941406 12.796875 -13.578125 Z M 7.1875 -24.359375 C 7.082031 -24.273438 6.863281 -24.171875 6.53125 -24.046875 C 6.195312 -23.929688 5.835938 -23.847656 5.453125 -23.796875 C 5.078125 -23.742188 4.78125 -23.800781 4.5625 -23.96875 C 4.351562 -24.144531 4.347656 -24.488281 4.546875 -25 C 4.890625 -25.90625 5.25 -26.695312 5.625 -27.375 C 6 -28.050781 6.488281 -28.796875 7.09375 -29.609375 C 7.476562 -29.972656 7.894531 -30.171875 8.34375 -30.203125 C 8.789062 -30.234375 9.164062 -30.113281 9.46875 -29.84375 C 9.769531 -29.582031 9.859375 -29.210938 9.734375 -28.734375 C 9.253906 -27.035156 8.40625 -25.578125 7.1875 -24.359375 Z M 7.1875 -24.359375 "/></g></g><g transform="translate(468.042586, 638.306224)"><g><path d="M 18.359375 -12.359375 C 17.117188 -11.140625 15.671875 -10.09375 14.015625 -9.21875 C 12.359375 -8.351562 10.972656 -7.785156 9.859375 -7.515625 C 8.742188 -7.253906 7.59375 -7.101562 6.40625 -7.0625 C 4.519531 -6.96875 2.78125 -7.222656 1.1875 -7.828125 C -1.40625 -8.878906 -2.304688 -10.890625 -1.515625 -13.859375 C -0.765625 -16.410156 0.757812 -18.40625 3.0625 -19.84375 C 5.363281 -21.28125 7.738281 -21.976562 10.1875 -21.9375 C 10.1875 -21.9375 10.207031 -21.9375 10.25 -21.9375 C 10.875 -21.976562 11.460938 -21.9375 12.015625 -21.8125 C 12.960938 -21.46875 13.5625 -20.910156 13.8125 -20.140625 C 14.070312 -19.367188 13.90625 -18.507812 13.3125 -17.5625 C 11.9375 -15.476562 10.066406 -14.316406 7.703125 -14.078125 C 6.128906 -13.929688 4.613281 -14.007812 3.15625 -14.3125 C 2.875 -14.351562 2.625 -14.273438 2.40625 -14.078125 C 2.195312 -13.890625 2.070312 -13.65625 2.03125 -13.375 C 1.601562 -11.519531 2.171875 -10.335938 3.734375 -9.828125 C 5.671875 -9.160156 7.679688 -9.160156 9.765625 -9.828125 C 12.171875 -10.578125 14.457031 -11.992188 16.625 -14.078125 C 18.789062 -16.160156 20.039062 -17.128906 20.375 -16.984375 C 20.707031 -16.847656 20.8125 -16.445312 20.6875 -15.78125 C 20.382812 -14.726562 19.609375 -13.585938 18.359375 -12.359375 Z M 4.640625 -17.5625 C 4.515625 -17.40625 4.421875 -17.234375 4.359375 -17.046875 C 4.304688 -16.867188 4.378906 -16.707031 4.578125 -16.5625 C 5.328125 -16.132812 6.140625 -15.976562 7.015625 -16.09375 C 7.898438 -16.207031 8.648438 -16.535156 9.265625 -17.078125 C 9.878906 -17.628906 10.140625 -18.304688 10.046875 -19.109375 C 9.984375 -19.390625 9.832031 -19.566406 9.59375 -19.640625 C 9.363281 -19.710938 9.128906 -19.726562 8.890625 -19.6875 C 7.304688 -19.40625 5.890625 -18.695312 4.640625 -17.5625 Z M 4.640625 -17.5625 "/></g></g><g transform="translate(486.792206, 638.306224)"><g><path d="M 15.59375 -16.328125 C 12.195312 -15.066406 9.75 -14.035156 8.25 -13.234375 C 7.15625 -12.703125 6.523438 -12.257812 6.359375 -11.90625 C 6.203125 -11.550781 6.328125 -10.898438 6.734375 -9.953125 C 6.734375 -9.910156 6.765625 -9.847656 6.828125 -9.765625 C 7.304688 -8.628906 7.585938 -7.445312 7.671875 -6.21875 C 7.816406 -3.75 5.710938 -2.019531 1.359375 -1.03125 C -2.984375 -0.0390625 -5.890625 -0.00390625 -7.359375 -0.921875 C -8.828125 -1.847656 -9.273438 -3.019531 -8.703125 -4.4375 C -8.140625 -5.863281 -6.664062 -7.304688 -4.28125 -8.765625 C -1.894531 -10.222656 -0.300781 -11.273438 0.5 -11.921875 C 1.300781 -12.566406 1.539062 -13.285156 1.21875 -14.078125 C 1.113281 -14.359375 1 -14.640625 0.875 -14.921875 C 0.59375 -15.585938 0.300781 -16.273438 0 -16.984375 C -0.5625 -18.265625 -0.800781 -19.53125 -0.71875 -20.78125 C -0.644531 -22.03125 -0.1875 -23.078125 0.65625 -23.921875 C 1.507812 -24.765625 2.828125 -25.222656 4.609375 -25.296875 C 5.617188 -25.335938 6.519531 -25.203125 7.3125 -24.890625 C 8.101562 -24.578125 8.738281 -24.003906 9.21875 -23.171875 C 9.601562 -22.585938 9.484375 -22.0625 8.859375 -21.59375 C 8.453125 -21.269531 8.015625 -21.222656 7.546875 -21.453125 C 7.242188 -21.585938 6.953125 -21.769531 6.671875 -22 C 6.671875 -22.070312 6.671875 -22.109375 6.671875 -22.109375 C 6.535156 -22.191406 6.414062 -22.273438 6.3125 -22.359375 C 6.1875 -22.554688 6.046875 -22.707031 5.890625 -22.8125 C 5.335938 -23.21875 4.773438 -23.335938 4.203125 -23.171875 C 3.628906 -23.015625 3.207031 -22.582031 2.9375 -21.875 C 2.738281 -21.3125 2.640625 -20.742188 2.640625 -20.171875 C 2.679688 -19.460938 2.84375 -18.773438 3.125 -18.109375 C 3.320312 -17.703125 3.492188 -17.328125 3.640625 -16.984375 C 4.003906 -16.035156 4.300781 -15.382812 4.53125 -15.03125 C 4.769531 -14.675781 5.054688 -14.523438 5.390625 -14.578125 C 5.722656 -14.628906 8.769531 -15.71875 14.53125 -17.84375 C 15.78125 -18.257812 16.132812 -17.753906 15.59375 -16.328125 Z M 1.640625 -4.03125 C 3.148438 -4.539062 3.785156 -5.550781 3.546875 -7.0625 C 3.546875 -7.164062 3.523438 -7.28125 3.484375 -7.40625 C 3.390625 -8.226562 3.210938 -8.859375 2.953125 -9.296875 C 2.703125 -9.734375 2.125 -9.71875 1.21875 -9.25 C -1.007812 -7.976562 -3.070312 -6.492188 -4.96875 -4.796875 C -5.09375 -4.648438 -5.207031 -4.507812 -5.3125 -4.375 C -5.3125 -4.375 -5.332031 -4.34375 -5.375 -4.28125 C -5.507812 -4.113281 -5.53125 -3.921875 -5.4375 -3.703125 C -5.351562 -3.492188 -5.160156 -3.390625 -4.859375 -3.390625 C -2.648438 -3.046875 -0.484375 -3.257812 1.640625 -4.03125 Z M 1.640625 -4.03125 "/></g></g></g><g fill="#ff66c4" fill-opacity="1"><g transform="translate(501.063824, 638.306224)"><g/></g></g><g transform="matrix(1, 0, 0, 1, 188, 598)"><g clip-path="url(#ce22a52ff9)"><g fill="#ffffff" fill-opacity="1"><g transform="translate(1.135307, 57.334039)"><g><path d="M 37.0625 -15.5 C 36.34375 -11.664062 34.820312 -8.429688 32.5 -5.796875 C 34.457031 -3.835938 36.46875 -2.023438 38.53125 -0.359375 C 40.59375 1.304688 42.617188 2.753906 44.609375 3.984375 C 46.597656 5.210938 48.515625 6.171875 50.359375 6.859375 C 52.210938 7.554688 53.90625 7.90625 55.4375 7.90625 C 56.0625 7.90625 56.679688 7.847656 57.296875 7.734375 L 57.296875 8.40625 C 57.054688 8.5 56.75 8.628906 56.375 8.796875 C 56 8.972656 55.535156 9.140625 54.984375 9.296875 C 54.441406 9.453125 53.800781 9.585938 53.0625 9.703125 C 52.320312 9.816406 51.476562 9.875 50.53125 9.875 C 49.03125 9.875 47.410156 9.5625 45.671875 8.9375 C 43.929688 8.3125 42.128906 7.441406 40.265625 6.328125 C 38.398438 5.222656 36.507812 3.910156 34.59375 2.390625 C 32.675781 0.867188 30.804688 -0.789062 28.984375 -2.59375 C 27.304688 -1.457031 25.460938 -0.582031 23.453125 0.03125 C 21.441406 0.644531 19.242188 0.953125 16.859375 0.953125 C 14.703125 0.953125 12.757812 0.679688 11.03125 0.140625 C 9.3125 -0.390625 7.851562 -1.15625 6.65625 -2.15625 C 5.46875 -3.164062 4.550781 -4.378906 3.90625 -5.796875 C 3.257812 -7.222656 2.9375 -8.820312 2.9375 -10.59375 C 2.9375 -12.28125 3.253906 -13.785156 3.890625 -15.109375 C 4.523438 -16.429688 5.359375 -17.617188 6.390625 -18.671875 C 7.421875 -19.734375 8.597656 -20.695312 9.921875 -21.5625 C 11.253906 -22.425781 12.613281 -23.265625 14 -24.078125 C 13.4375 -25.515625 13 -26.914062 12.6875 -28.28125 C 12.382812 -29.644531 12.234375 -30.953125 12.234375 -32.203125 C 12.234375 -33.722656 12.476562 -35.09375 12.96875 -36.3125 C 13.457031 -37.539062 14.125 -38.578125 14.96875 -39.421875 C 15.820312 -40.273438 16.820312 -40.929688 17.96875 -41.390625 C 19.113281 -41.847656 20.335938 -42.078125 21.640625 -42.078125 C 22.609375 -42.078125 23.515625 -41.941406 24.359375 -41.671875 C 25.203125 -41.398438 25.9375 -41 26.5625 -40.46875 C 27.1875 -39.945312 27.679688 -39.289062 28.046875 -38.5 C 28.421875 -37.707031 28.609375 -36.796875 28.609375 -35.765625 C 28.609375 -34.453125 28.332031 -33.273438 27.78125 -32.234375 C 27.226562 -31.203125 26.503906 -30.25 25.609375 -29.375 C 24.710938 -28.507812 23.6875 -27.703125 22.53125 -26.953125 C 21.382812 -26.203125 20.195312 -25.472656 18.96875 -24.765625 C 19.582031 -23.316406 20.316406 -21.851562 21.171875 -20.375 C 22.023438 -18.894531 22.960938 -17.414062 23.984375 -15.9375 C 25.003906 -14.46875 26.097656 -13.019531 27.265625 -11.59375 C 28.441406 -10.175781 29.65625 -8.796875 30.90625 -7.453125 C 31.832031 -8.703125 32.5625 -10.125 33.09375 -11.71875 C 33.625 -13.3125 33.890625 -15.0625 33.890625 -16.96875 C 33.890625 -18.582031 33.796875 -19.929688 33.609375 -21.015625 C 33.421875 -22.109375 33.234375 -23.039062 33.046875 -23.8125 L 33.046875 -23.921875 L 38.234375 -23.921875 L 38.234375 -23.8125 C 38.109375 -23.351562 38.007812 -22.835938 37.9375 -22.265625 C 37.875 -21.703125 37.800781 -21.078125 37.71875 -20.390625 C 37.644531 -19.703125 37.554688 -18.945312 37.453125 -18.125 C 37.359375 -17.3125 37.226562 -16.4375 37.0625 -15.5 Z M 19.015625 -1.640625 C 20.597656 -1.640625 22.101562 -1.851562 23.53125 -2.28125 C 24.96875 -2.707031 26.285156 -3.320312 27.484375 -4.125 C 26.171875 -5.507812 24.894531 -6.9375 23.65625 -8.40625 C 22.425781 -9.882812 21.273438 -11.382812 20.203125 -12.90625 C 19.128906 -14.4375 18.132812 -15.976562 17.21875 -17.53125 C 16.300781 -19.082031 15.503906 -20.609375 14.828125 -22.109375 C 13.929688 -21.492188 13.09375 -20.847656 12.3125 -20.171875 C 11.53125 -19.503906 10.847656 -18.765625 10.265625 -17.953125 C 9.691406 -17.140625 9.238281 -16.253906 8.90625 -15.296875 C 8.570312 -14.347656 8.40625 -13.3125 8.40625 -12.1875 C 8.40625 -10.675781 8.664062 -9.273438 9.1875 -7.984375 C 9.71875 -6.703125 10.453125 -5.585938 11.390625 -4.640625 C 12.335938 -3.703125 13.460938 -2.96875 14.765625 -2.4375 C 16.066406 -1.90625 17.484375 -1.640625 19.015625 -1.640625 Z M 16.859375 -33.734375 C 16.859375 -32.617188 16.984375 -31.46875 17.234375 -30.28125 C 17.484375 -29.101562 17.828125 -27.878906 18.265625 -26.609375 C 19.210938 -27.203125 20.09375 -27.816406 20.90625 -28.453125 C 21.726562 -29.085938 22.441406 -29.773438 23.046875 -30.515625 C 23.648438 -31.253906 24.125 -32.046875 24.46875 -32.890625 C 24.820312 -33.742188 25 -34.679688 25 -35.703125 C 25 -36.273438 24.925781 -36.816406 24.78125 -37.328125 C 24.632812 -37.835938 24.414062 -38.289062 24.125 -38.6875 C 23.84375 -39.082031 23.472656 -39.390625 23.015625 -39.609375 C 22.566406 -39.828125 22.039062 -39.9375 21.4375 -39.9375 C 19.90625 -39.9375 18.757812 -39.390625 18 -38.296875 C 17.238281 -37.203125 16.859375 -35.679688 16.859375 -33.734375 Z M 16.859375 -33.734375 "/></g></g></g></g></g><g fill="#6aaaff" fill-opacity="1"><g transform="translate(229.527112, 716.86134)"><g><path d="M 128.9375 -83.828125 C 131.019531 -77.960938 130.570312 -72.097656 127.59375 -66.234375 C 127.3125 -65.679688 126.96875 -65.175781 126.5625 -64.71875 C 126.164062 -64.269531 125.613281 -63.972656 124.90625 -63.828125 C 124.4375 -63.742188 124.023438 -63.851562 123.671875 -64.15625 C 123.316406 -64.46875 123.179688 -64.832031 123.265625 -65.25 C 123.546875 -66.0625 123.828125 -66.84375 124.109375 -67.59375 C 124.253906 -67.976562 124.425781 -68.351562 124.625 -68.71875 C 126.082031 -72.78125 126.335938 -76.796875 125.390625 -80.765625 C 124.359375 -85.304688 121.644531 -88.285156 117.25 -89.703125 C 114.6875 -90.472656 112.101562 -90.890625 109.5 -90.953125 C 106.90625 -91.015625 104.269531 -90.8125 101.59375 -90.34375 C 93.40625 -88.84375 85.410156 -86.457031 77.609375 -83.1875 C 65.609375 -78.3125 54.171875 -72.242188 43.296875 -64.984375 C 33.953125 -58.734375 25.546875 -51.378906 18.078125 -42.921875 C 15.472656 -39.992188 13.117188 -36.882812 11.015625 -33.59375 C 8.910156 -30.3125 7.222656 -26.800781 5.953125 -23.0625 C 4.734375 -19.351562 4.144531 -15.609375 4.1875 -11.828125 C 4.332031 -7.742188 5.363281 -4.257812 7.28125 -1.375 C 9.195312 1.5 11.769531 3.59375 15 4.90625 C 18.226562 6.226562 21.875 6.554688 25.9375 5.890625 C 31.132812 5.015625 36.050781 3.160156 40.6875 0.328125 C 43.4375 -1.285156 46.003906 -3.109375 48.390625 -5.140625 C 50.773438 -7.171875 53.070312 -9.320312 55.28125 -11.59375 C 60.632812 -17.175781 65.414062 -23.203125 69.625 -29.671875 C 72.070312 -33.492188 74.101562 -37.53125 75.71875 -41.78125 C 75.800781 -41.9375 75.863281 -42.109375 75.90625 -42.296875 C 76.289062 -43.285156 76.722656 -44.253906 77.203125 -45.203125 C 77.953125 -46.515625 79.128906 -47.082031 80.734375 -46.90625 C 81.722656 -46.800781 82.273438 -46.234375 82.390625 -45.203125 C 82.390625 -43.679688 82.097656 -42.1875 81.515625 -40.71875 C 77.929688 -30.476562 74.03125 -20.34375 69.8125 -10.3125 C 69.726562 -10.070312 69.632812 -9.832031 69.53125 -9.59375 C 69.289062 -9.125 69.085938 -8.65625 68.921875 -8.1875 C 68.847656 -8.050781 68.789062 -7.910156 68.75 -7.765625 C 68.519531 -7.203125 68.382812 -6.613281 68.34375 -6 C 68.34375 -5.757812 68.421875 -5.578125 68.578125 -5.453125 C 68.734375 -5.335938 68.929688 -5.238281 69.171875 -5.15625 C 69.472656 -5.050781 69.710938 -4.910156 69.890625 -4.734375 C 69.953125 -4.734375 70.003906 -4.703125 70.046875 -4.640625 C 70.171875 -4.515625 70.28125 -4.378906 70.375 -4.234375 C 70.476562 -4.097656 70.429688 -3.910156 70.234375 -3.671875 C 70.109375 -3.429688 69.90625 -3.238281 69.625 -3.09375 C 69.320312 -2.945312 69.007812 -2.875 68.6875 -2.875 C 67.789062 -2.976562 67.082031 -2.78125 66.5625 -2.28125 C 66.050781 -1.789062 65.625 -1.160156 65.28125 -0.390625 C 64.007812 2.296875 62.707031 4.960938 61.375 7.609375 C 58.644531 13.191406 55.570312 18.625 52.15625 23.90625 C 50.03125 27.21875 47.648438 30.34375 45.015625 33.28125 C 42.285156 36.394531 39.050781 38.820312 35.3125 40.5625 C 33.269531 41.507812 31.1875 42.035156 29.0625 42.140625 C 26.613281 42.316406 24.617188 41.734375 23.078125 40.390625 C 21.546875 39.046875 20.679688 37.148438 20.484375 34.703125 C 20.335938 32.617188 20.617188 30.535156 21.328125 28.453125 C 22.804688 24.429688 24.988281 20.84375 27.875 17.6875 C 35.195312 9.3125 43.9375 3.070312 54.09375 -1.03125 C 55.789062 -1.695312 57.488281 -2.285156 59.1875 -2.796875 C 59.375 -2.910156 59.585938 -2.988281 59.828125 -3.03125 C 61.097656 -3.394531 62.019531 -4.164062 62.59375 -5.34375 C 63.113281 -6.59375 63.65625 -7.828125 64.21875 -9.046875 C 65.78125 -12.316406 67.109375 -15.671875 68.203125 -19.109375 C 68.242188 -19.210938 68.242188 -19.304688 68.203125 -19.390625 C 68.140625 -19.429688 68.109375 -19.476562 68.109375 -19.53125 C 67.597656 -19.4375 67.191406 -19.222656 66.890625 -18.890625 C 66.585938 -18.554688 66.285156 -18.207031 65.984375 -17.84375 C 65.859375 -17.613281 65.695312 -17.378906 65.5 -17.140625 C 61.875 -12.773438 57.953125 -8.679688 53.734375 -4.859375 C 48.628906 -0.222656 42.960938 3.359375 36.734375 5.890625 C 33.179688 7.304688 29.609375 8.238281 26.015625 8.6875 C 22.421875 9.144531 18.828125 9.019531 15.234375 8.3125 C 11.085938 7.476562 7.597656 5.484375 4.765625 2.328125 C 1.929688 -0.816406 0.222656 -4.769531 -0.359375 -9.53125 C -0.679688 -12.519531 -0.570312 -15.460938 -0.03125 -18.359375 C 0.5 -21.265625 1.390625 -24.132812 2.640625 -26.96875 C 4.054688 -30.144531 5.71875 -33.148438 7.625 -35.984375 C 9.539062 -38.816406 11.660156 -41.554688 13.984375 -44.203125 C 22.140625 -53.460938 31.414062 -61.421875 41.8125 -68.078125 C 49.25 -72.910156 56.894531 -77.207031 64.75 -80.96875 C 72.613281 -84.726562 80.738281 -87.851562 89.125 -90.34375 C 92.789062 -91.476562 96.515625 -92.34375 100.296875 -92.9375 C 104.078125 -93.53125 107.859375 -93.75 111.640625 -93.59375 C 115.609375 -93.46875 119.320312 -92.554688 122.78125 -90.859375 C 125.789062 -89.328125 127.84375 -86.984375 128.9375 -83.828125 Z M 59.40625 1.03125 C 59.5 0.6875 59.453125 0.40625 59.265625 0.1875 C 59.085938 -0.0195312 58.828125 -0.0703125 58.484375 0.03125 C 57.722656 0.269531 56.988281 0.53125 56.28125 0.8125 C 47.582031 4.632812 39.925781 10.023438 33.3125 16.984375 C 30.90625 19.472656 28.851562 22.234375 27.15625 25.265625 C 25.875 27.390625 25.09375 29.890625 24.8125 32.765625 C 24.8125 32.804688 24.8125 32.90625 24.8125 33.0625 C 24.769531 33.445312 24.769531 33.9375 24.8125 34.53125 C 25.039062 36.707031 25.785156 38.164062 27.046875 38.90625 C 28.304688 39.644531 29.976562 39.585938 32.0625 38.734375 C 35.0625 37.359375 37.703125 35.421875 39.984375 32.921875 C 42.816406 29.941406 45.316406 26.722656 47.484375 23.265625 C 49.660156 19.910156 51.679688 16.472656 53.546875 12.953125 C 55.410156 9.429688 57.191406 5.875 58.890625 2.28125 C 59.085938 1.851562 59.257812 1.457031 59.40625 1.09375 C 59.40625 1.050781 59.40625 1.03125 59.40625 1.03125 Z M 59.40625 1.03125 "/></g></g><g transform="translate(312.386259, 716.86134)"><g><path d="M 18.359375 -12.359375 C 17.117188 -11.140625 15.671875 -10.09375 14.015625 -9.21875 C 12.359375 -8.351562 10.972656 -7.785156 9.859375 -7.515625 C 8.742188 -7.253906 7.59375 -7.101562 6.40625 -7.0625 C 4.519531 -6.96875 2.78125 -7.222656 1.1875 -7.828125 C -1.40625 -8.878906 -2.304688 -10.890625 -1.515625 -13.859375 C -0.765625 -16.410156 0.757812 -18.40625 3.0625 -19.84375 C 5.363281 -21.28125 7.738281 -21.976562 10.1875 -21.9375 C 10.1875 -21.9375 10.207031 -21.9375 10.25 -21.9375 C 10.875 -21.976562 11.460938 -21.9375 12.015625 -21.8125 C 12.960938 -21.46875 13.5625 -20.910156 13.8125 -20.140625 C 14.070312 -19.367188 13.90625 -18.507812 13.3125 -17.5625 C 11.9375 -15.476562 10.066406 -14.316406 7.703125 -14.078125 C 6.128906 -13.929688 4.613281 -14.007812 3.15625 -14.3125 C 2.875 -14.351562 2.625 -14.273438 2.40625 -14.078125 C 2.195312 -13.890625 2.070312 -13.65625 2.03125 -13.375 C 1.601562 -11.519531 2.171875 -10.335938 3.734375 -9.828125 C 5.671875 -9.160156 7.679688 -9.160156 9.765625 -9.828125 C 12.171875 -10.578125 14.457031 -11.992188 16.625 -14.078125 C 18.789062 -16.160156 20.039062 -17.128906 20.375 -16.984375 C 20.707031 -16.847656 20.8125 -16.445312 20.6875 -15.78125 C 20.382812 -14.726562 19.609375 -13.585938 18.359375 -12.359375 Z M 4.640625 -17.5625 C 4.515625 -17.40625 4.421875 -17.234375 4.359375 -17.046875 C 4.304688 -16.867188 4.378906 -16.707031 4.578125 -16.5625 C 5.328125 -16.132812 6.140625 -15.976562 7.015625 -16.09375 C 7.898438 -16.207031 8.648438 -16.535156 9.265625 -17.078125 C 9.878906 -17.628906 10.140625 -18.304688 10.046875 -19.109375 C 9.984375 -19.390625 9.832031 -19.566406 9.59375 -19.640625 C 9.363281 -19.710938 9.128906 -19.726562 8.890625 -19.6875 C 7.304688 -19.40625 5.890625 -18.695312 4.640625 -17.5625 Z M 4.640625 -17.5625 "/></g></g><g transform="translate(331.13588, 716.86134)"><g><path d="M 25.515625 -16.078125 C 25.859375 -15.648438 25.425781 -14.863281 24.21875 -13.71875 C 23.019531 -12.582031 21.742188 -11.628906 20.390625 -10.859375 C 19.035156 -10.085938 17.46875 -9.3125 15.6875 -8.53125 C 14.507812 -8.019531 13.253906 -7.847656 11.921875 -8.015625 C 10.585938 -8.191406 9.921875 -9 9.921875 -10.4375 C 9.921875 -11.875 10.253906 -13.300781 10.921875 -14.71875 C 11.585938 -16.1875 11.734375 -16.941406 11.359375 -16.984375 C 10.984375 -17.023438 10.203125 -16.671875 9.015625 -15.921875 C 5.941406 -13.898438 3.085938 -11.585938 0.453125 -8.984375 C -0.253906 -8.128906 -1.15625 -7.660156 -2.25 -7.578125 C -2.8125 -7.578125 -3.25 -7.753906 -3.5625 -8.109375 C -3.875 -8.460938 -3.910156 -8.84375 -3.671875 -9.25 C -1.785156 -12.75 0.125 -16.207031 2.0625 -19.625 C 2.488281 -20.332031 3.132812 -20.769531 4 -20.9375 C 4.363281 -21 4.703125 -20.882812 5.015625 -20.59375 C 5.328125 -20.3125 5.484375 -19.988281 5.484375 -19.625 C 5.429688 -19.28125 5.289062 -18.867188 5.0625 -18.390625 C 4.945312 -18.117188 4.84375 -17.851562 4.75 -17.59375 C 4.65625 -17.332031 4.625 -17.113281 4.65625 -16.9375 C 4.6875 -16.769531 4.820312 -16.71875 5.0625 -16.78125 C 5.382812 -16.957031 5.707031 -17.140625 6.03125 -17.328125 C 6.84375 -17.804688 7.625 -18.257812 8.375 -18.6875 C 9.039062 -19.070312 9.738281 -19.414062 10.46875 -19.71875 C 11.195312 -20.019531 11.960938 -20.222656 12.765625 -20.328125 C 14.046875 -20.410156 14.953125 -20.117188 15.484375 -19.453125 C 16.023438 -18.796875 16.09375 -17.875 15.6875 -16.6875 C 15.257812 -15.613281 14.8125 -14.550781 14.34375 -13.5 C 13.757812 -12.507812 13.660156 -11.753906 14.046875 -11.234375 C 14.429688 -10.722656 16.222656 -11.316406 19.421875 -13.015625 L 21.84375 -14.4375 C 24.125 -15.894531 25.347656 -16.441406 25.515625 -16.078125 Z M 25.515625 -16.078125 "/></g></g><g transform="translate(354.750093, 716.86134)"><g><path d="M 20.140625 -15.5625 C 17.253906 -12.164062 14.429688 -9.660156 11.671875 -8.046875 C 8.921875 -6.441406 5.96875 -5.910156 2.8125 -6.453125 C -0.332031 -7.003906 -1.625 -9.117188 -1.0625 -12.796875 C -0.675781 -14.640625 -0.148438 -16.441406 0.515625 -18.203125 C 2.171875 -22.304688 3.847656 -26.390625 5.546875 -30.453125 C 6.097656 -31.910156 6.6875 -33.378906 7.3125 -34.859375 C 7.46875 -35.179688 7.609375 -35.503906 7.734375 -35.828125 C 7.972656 -36.367188 8.207031 -36.914062 8.4375 -37.46875 C 8.78125 -38.414062 8.40625 -38.910156 7.3125 -38.953125 C 6.6875 -38.953125 6.078125 -38.953125 5.484375 -38.953125 C 5.203125 -38.953125 4.890625 -38.953125 4.546875 -38.953125 C 4.222656 -38.910156 3.890625 -38.867188 3.546875 -38.828125 C 2.984375 -38.785156 2.425781 -38.765625 1.875 -38.765625 C 1.332031 -38.765625 0.828125 -38.898438 0.359375 -39.171875 C 0.222656 -39.222656 0.117188 -39.304688 0.046875 -39.421875 C -0.0234375 -39.535156 -0.0625 -39.671875 -0.0625 -39.828125 C -0.0195312 -39.910156 0.046875 -40.007812 0.140625 -40.125 C 0.242188 -40.25 0.367188 -40.332031 0.515625 -40.375 C 0.984375 -40.5625 1.476562 -40.703125 2 -40.796875 C 3.332031 -40.859375 4.648438 -40.910156 5.953125 -40.953125 C 6.472656 -40.953125 6.925781 -40.953125 7.3125 -40.953125 C 8.175781 -40.953125 8.816406 -40.984375 9.234375 -41.046875 C 9.648438 -41.109375 9.984375 -41.332031 10.234375 -41.71875 C 10.492188 -42.101562 10.796875 -42.695312 11.140625 -43.5 C 11.335938 -43.925781 11.578125 -44.394531 11.859375 -44.90625 C 12.566406 -46.414062 13.273438 -47.953125 13.984375 -49.515625 C 14.304688 -50.222656 14.640625 -50.910156 14.984375 -51.578125 C 15.265625 -52.242188 15.703125 -52.757812 16.296875 -53.125 C 16.878906 -53.40625 17.382812 -53.382812 17.8125 -53.0625 C 17.945312 -52.976562 18.050781 -52.835938 18.125 -52.640625 C 18.195312 -52.453125 18.234375 -52.28125 18.234375 -52.125 C 18.234375 -51.289062 18.019531 -50.46875 17.59375 -49.65625 C 17.507812 -49.476562 17.410156 -49.269531 17.296875 -49.03125 C 17.015625 -48.257812 16.71875 -47.476562 16.40625 -46.6875 C 15.78125 -45.226562 15.1875 -43.734375 14.625 -42.203125 C 14.476562 -41.921875 14.472656 -41.671875 14.609375 -41.453125 C 14.753906 -41.242188 14.960938 -41.140625 15.234375 -41.140625 C 16.765625 -41.097656 18.257812 -41.078125 19.71875 -41.078125 C 20.46875 -41.078125 21.21875 -41.078125 21.96875 -41.078125 C 24.332031 -41.035156 25.28125 -40.703125 24.8125 -40.078125 C 24.488281 -39.710938 24.140625 -39.503906 23.765625 -39.453125 C 23.390625 -39.398438 23.007812 -39.40625 22.625 -39.46875 C 22.382812 -39.46875 22.144531 -39.46875 21.90625 -39.46875 C 19.5 -39.320312 17.113281 -39.222656 14.75 -39.171875 C 13.65625 -39.171875 12.925781 -38.679688 12.5625 -37.703125 C 12.175781 -36.753906 11.800781 -35.804688 11.4375 -34.859375 C 10.894531 -33.617188 10.390625 -32.40625 9.921875 -31.21875 C 9.453125 -30.101562 8.976562 -28.976562 8.5 -27.84375 C 7.28125 -24.957031 6.101562 -22.066406 4.96875 -19.171875 C 4.257812 -17.273438 3.695312 -15.34375 3.28125 -13.375 C 2.382812 -9.78125 3.769531 -8.40625 7.4375 -9.25 C 11.050781 -10.101562 14.832031 -12.703125 18.78125 -17.046875 C 20.5 -18.140625 20.953125 -17.644531 20.140625 -15.5625 Z M 20.140625 -15.5625 "/></g></g><g transform="translate(373.048691, 716.86134)"><g><path d="M 15.59375 -15.375 C 16.300781 -16.082031 16.890625 -16.476562 17.359375 -16.5625 C 17.835938 -16.644531 18.144531 -16.566406 18.28125 -16.328125 C 18.425781 -16.097656 18.335938 -15.78125 18.015625 -15.375 C 16.117188 -13.09375 14 -11.125 11.65625 -9.46875 C 9.320312 -7.8125 6.910156 -6.851562 4.421875 -6.59375 C 1.941406 -6.34375 0.445312 -7.703125 -0.0625 -10.671875 C -0.445312 -13.609375 1.332031 -19.597656 5.28125 -28.640625 C 9.238281 -37.679688 12.363281 -45.09375 14.65625 -50.875 C 14.851562 -51.382812 15.144531 -51.835938 15.53125 -52.234375 C 16.039062 -52.742188 16.648438 -52.859375 17.359375 -52.578125 C 17.597656 -52.472656 17.832031 -52.300781 18.0625 -52.0625 C 18.300781 -51.832031 18.378906 -51.414062 18.296875 -50.8125 C 8.140625 -26.707031 3.222656 -13.601562 3.546875 -11.5 C 3.867188 -9.394531 5.226562 -8.875 7.625 -9.9375 C 10.019531 -11 11.863281 -12.082031 13.15625 -13.1875 C 14.457031 -14.300781 15.269531 -15.03125 15.59375 -15.375 Z M 15.59375 -15.375 "/></g></g><g transform="translate(389.124396, 716.86134)"><g><path d="M 33.671875 -16.140625 C 34.421875 -16.609375 35.007812 -16.722656 35.4375 -16.484375 C 35.863281 -16.253906 35.703125 -15.59375 34.953125 -14.5 C 34.015625 -13.226562 32.320312 -11.875 29.875 -10.4375 C 27.4375 -9 25.285156 -8.367188 23.421875 -8.546875 C 21.554688 -8.734375 21.015625 -10.113281 21.796875 -12.6875 C 22.578125 -15.269531 23 -16.71875 23.0625 -17.03125 C 23.132812 -17.34375 23.078125 -17.519531 22.890625 -17.5625 C 22.710938 -17.601562 22.289062 -17.390625 21.625 -16.921875 C 19.6875 -15.585938 17.796875 -14.1875 15.953125 -12.71875 C 15.148438 -12.125 14.363281 -11.492188 13.59375 -10.828125 C 13.125 -10.398438 12.628906 -9.96875 12.109375 -9.53125 C 12.109375 -9.53125 12.085938 -9.507812 12.046875 -9.46875 C 11.492188 -8.914062 10.804688 -8.539062 9.984375 -8.34375 C 9.617188 -8.238281 9.234375 -8.203125 8.828125 -8.234375 C 8.421875 -8.265625 8.078125 -8.421875 7.796875 -8.703125 C 7.472656 -9.023438 7.351562 -9.363281 7.4375 -9.71875 C 7.53125 -10.070312 7.800781 -10.601562 8.25 -11.3125 C 8.695312 -12.019531 9.191406 -12.796875 9.734375 -13.640625 C 10.285156 -14.492188 10.59375 -15.015625 10.65625 -15.203125 C 10.726562 -15.398438 10.695312 -15.59375 10.5625 -15.78125 C 10.414062 -15.976562 10.25 -16.039062 10.0625 -15.96875 C 9.882812 -15.894531 9.203125 -15.429688 8.015625 -14.578125 C 6.835938 -13.734375 5.226562 -12.546875 3.1875 -11.015625 C 2.238281 -10.304688 1.316406 -9.578125 0.421875 -8.828125 C 0.179688 -8.585938 -0.078125 -8.375 -0.359375 -8.1875 C -1.023438 -7.625 -1.753906 -7.320312 -2.546875 -7.28125 C -3.128906 -7.238281 -3.554688 -7.367188 -3.828125 -7.671875 C -4.109375 -7.972656 -4.15625 -8.378906 -3.96875 -8.890625 C -3.832031 -9.273438 -3.671875 -9.628906 -3.484375 -9.953125 C -3.367188 -10.109375 -3.289062 -10.257812 -3.25 -10.40625 C -1.550781 -13.84375 0.117188 -17.289062 1.765625 -20.75 C 1.816406 -20.832031 1.863281 -20.953125 1.90625 -21.109375 C 2.09375 -21.472656 2.285156 -21.828125 2.484375 -22.171875 C 2.992188 -22.722656 3.601562 -22.90625 4.3125 -22.71875 C 5.132812 -22.476562 5.445312 -22.003906 5.25 -21.296875 C 4.863281 -20.222656 4.488281 -19.160156 4.125 -18.109375 C 3.925781 -17.628906 3.734375 -17.15625 3.546875 -16.6875 C 3.222656 -15.851562 3.117188 -15.316406 3.234375 -15.078125 C 3.359375 -14.835938 3.890625 -15 4.828125 -15.5625 C 5.472656 -15.988281 6.109375 -16.414062 6.734375 -16.84375 C 7.484375 -17.363281 8.210938 -17.835938 8.921875 -18.265625 C 10.015625 -18.929688 11.132812 -19.5 12.28125 -19.96875 C 12.832031 -20.207031 13.40625 -20.382812 14 -20.5 C 14.59375 -20.625 15.144531 -20.492188 15.65625 -20.109375 C 16.039062 -19.785156 16.207031 -19.414062 16.15625 -19 C 16.101562 -18.59375 15.988281 -18.207031 15.8125 -17.84375 C 15.519531 -17.132812 15.398438 -16.679688 15.453125 -16.484375 C 15.503906 -16.296875 15.671875 -16.257812 15.953125 -16.375 C 16.234375 -16.5 16.726562 -16.773438 17.4375 -17.203125 C 18.144531 -17.628906 18.90625 -18.101562 19.71875 -18.625 C 20.75 -19.289062 21.832031 -19.925781 22.96875 -20.53125 C 23.914062 -21.144531 24.925781 -21.519531 26 -21.65625 C 27.476562 -21.757812 28.082031 -21.160156 27.8125 -19.859375 C 27.550781 -18.554688 27.03125 -17.007812 26.25 -15.21875 C 25.476562 -13.425781 25.398438 -12.328125 26.015625 -11.921875 C 26.628906 -11.515625 27.988281 -12.066406 30.09375 -13.578125 C 32.195312 -15.097656 33.390625 -15.953125 33.671875 -16.140625 Z M 33.671875 -16.140625 "/></g></g><g transform="translate(423.208758, 716.86134)"><g><path d="M 18.359375 -12.359375 C 17.117188 -11.140625 15.671875 -10.09375 14.015625 -9.21875 C 12.359375 -8.351562 10.972656 -7.785156 9.859375 -7.515625 C 8.742188 -7.253906 7.59375 -7.101562 6.40625 -7.0625 C 4.519531 -6.96875 2.78125 -7.222656 1.1875 -7.828125 C -1.40625 -8.878906 -2.304688 -10.890625 -1.515625 -13.859375 C -0.765625 -16.410156 0.757812 -18.40625 3.0625 -19.84375 C 5.363281 -21.28125 7.738281 -21.976562 10.1875 -21.9375 C 10.1875 -21.9375 10.207031 -21.9375 10.25 -21.9375 C 10.875 -21.976562 11.460938 -21.9375 12.015625 -21.8125 C 12.960938 -21.46875 13.5625 -20.910156 13.8125 -20.140625 C 14.070312 -19.367188 13.90625 -18.507812 13.3125 -17.5625 C 11.9375 -15.476562 10.066406 -14.316406 7.703125 -14.078125 C 6.128906 -13.929688 4.613281 -14.007812 3.15625 -14.3125 C 2.875 -14.351562 2.625 -14.273438 2.40625 -14.078125 C 2.195312 -13.890625 2.070312 -13.65625 2.03125 -13.375 C 1.601562 -11.519531 2.171875 -10.335938 3.734375 -9.828125 C 5.671875 -9.160156 7.679688 -9.160156 9.765625 -9.828125 C 12.171875 -10.578125 14.457031 -11.992188 16.625 -14.078125 C 18.789062 -16.160156 20.039062 -17.128906 20.375 -16.984375 C 20.707031 -16.847656 20.8125 -16.445312 20.6875 -15.78125 C 20.382812 -14.726562 19.609375 -13.585938 18.359375 -12.359375 Z M 4.640625 -17.5625 C 4.515625 -17.40625 4.421875 -17.234375 4.359375 -17.046875 C 4.304688 -16.867188 4.378906 -16.707031 4.578125 -16.5625 C 5.328125 -16.132812 6.140625 -15.976562 7.015625 -16.09375 C 7.898438 -16.207031 8.648438 -16.535156 9.265625 -17.078125 C 9.878906 -17.628906 10.140625 -18.304688 10.046875 -19.109375 C 9.984375 -19.390625 9.832031 -19.566406 9.59375 -19.640625 C 9.363281 -19.710938 9.128906 -19.726562 8.890625 -19.6875 C 7.304688 -19.40625 5.890625 -18.695312 4.640625 -17.5625 Z M 4.640625 -17.5625 "/></g></g><g transform="translate(441.958378, 716.86134)"><g><path d="M 25.515625 -16.078125 C 25.859375 -15.648438 25.425781 -14.863281 24.21875 -13.71875 C 23.019531 -12.582031 21.742188 -11.628906 20.390625 -10.859375 C 19.035156 -10.085938 17.46875 -9.3125 15.6875 -8.53125 C 14.507812 -8.019531 13.253906 -7.847656 11.921875 -8.015625 C 10.585938 -8.191406 9.921875 -9 9.921875 -10.4375 C 9.921875 -11.875 10.253906 -13.300781 10.921875 -14.71875 C 11.585938 -16.1875 11.734375 -16.941406 11.359375 -16.984375 C 10.984375 -17.023438 10.203125 -16.671875 9.015625 -15.921875 C 5.941406 -13.898438 3.085938 -11.585938 0.453125 -8.984375 C -0.253906 -8.128906 -1.15625 -7.660156 -2.25 -7.578125 C -2.8125 -7.578125 -3.25 -7.753906 -3.5625 -8.109375 C -3.875 -8.460938 -3.910156 -8.84375 -3.671875 -9.25 C -1.785156 -12.75 0.125 -16.207031 2.0625 -19.625 C 2.488281 -20.332031 3.132812 -20.769531 4 -20.9375 C 4.363281 -21 4.703125 -20.882812 5.015625 -20.59375 C 5.328125 -20.3125 5.484375 -19.988281 5.484375 -19.625 C 5.429688 -19.28125 5.289062 -18.867188 5.0625 -18.390625 C 4.945312 -18.117188 4.84375 -17.851562 4.75 -17.59375 C 4.65625 -17.332031 4.625 -17.113281 4.65625 -16.9375 C 4.6875 -16.769531 4.820312 -16.71875 5.0625 -16.78125 C 5.382812 -16.957031 5.707031 -17.140625 6.03125 -17.328125 C 6.84375 -17.804688 7.625 -18.257812 8.375 -18.6875 C 9.039062 -19.070312 9.738281 -19.414062 10.46875 -19.71875 C 11.195312 -20.019531 11.960938 -20.222656 12.765625 -20.328125 C 14.046875 -20.410156 14.953125 -20.117188 15.484375 -19.453125 C 16.023438 -18.796875 16.09375 -17.875 15.6875 -16.6875 C 15.257812 -15.613281 14.8125 -14.550781 14.34375 -13.5 C 13.757812 -12.507812 13.660156 -11.753906 14.046875 -11.234375 C 14.429688 -10.722656 16.222656 -11.316406 19.421875 -13.015625 L 21.84375 -14.4375 C 24.125 -15.894531 25.347656 -16.441406 25.515625 -16.078125 Z M 25.515625 -16.078125 "/></g></g></g></g></g></svg>